<svg width="61" height="81" viewBox="0 0 61 81" fill="none" xmlns="http://www.w3.org/2000/svg">
<g clip-path="url(#clip0_3_3476)">
<path d="M26.7731 38.3413C26.7731 38.3413 21.6191 43.5842 21.6191 47.4588C21.6191 52.2921 25.5745 52.2921 26.7731 52.2921C27.9688 52.2921 31.9211 52.2921 31.9211 47.4588C31.9211 43.1807 26.7731 38.3413 26.7731 38.3413Z" fill="#DC1F26"/>
<path d="M26.771 65.4445C26.771 65.4445 30.0107 61.1027 30.0107 57.8896C30.0107 53.8906 27.5228 53.8906 26.771 53.8906C26.0192 53.8906 23.5312 53.8906 23.5312 57.8896C23.5313 61.4364 26.771 65.4445 26.771 65.4445Z" fill="#DC1F26"/>
<path d="M10.0068 38.302C10.0068 38.302 11.4048 40.1346 12.8027 43.1445C14.2007 46.1543 14.5328 47.8898 14.5328 47.8898C14.5328 47.8898 16.4501 49.604 18.1258 50.6994C20.7798 52.4288 22.9416 52.8657 22.4736 51.7279C22.0086 50.5932 19.9223 47.0099 18.5243 45.2774C17.1264 43.545 14.3033 40.2712 13.0684 39.7341C12.8269 39.6279 12.5461 39.5581 12.5793 39.5551C12.6548 39.5521 13.2375 39.6188 14.1433 40.0921C16.5829 41.3725 18.6179 44.7525 19.1524 45.3533C19.4754 45.7174 20.0793 46.5093 20.502 47.0736C20.7768 47.4407 21.1934 47.9565 21.1904 47.8382C21.1904 47.7532 21.2055 46.5366 21.4772 45.5201C21.6765 44.7586 21.9966 44.0304 22.1324 43.7331C22.1747 43.639 22.1807 43.6299 22.1687 43.5905C22.1626 43.5601 22.1385 43.548 22.0872 43.5176C21.1421 42.8835 15.7375 38.9089 13.467 38.299C11.0727 37.6618 10.0068 38.302 10.0068 38.302Z" fill="#DC1F26"/>
<path d="M0.399534 59.1642C1.25702 57.6866 3.25279 54.5039 5.2848 53.5087C6.64651 52.8412 7.45569 52.1525 7.98106 52.0038C8.50642 51.8551 8.77514 52.0463 9.20388 52.2769C9.52997 52.4528 10.0523 52.6622 10.8856 52.8624C12.036 53.1446 13.1441 53.3752 13.8446 53.5148C14.3186 53.6088 14.4183 53.6422 14.6115 53.6422C14.8953 53.6422 15.2033 53.627 15.321 53.5906C15.5022 53.533 15.321 53.4419 15.2214 53.3995C15.158 53.3813 15.0946 53.3691 15.0402 53.354C14.7685 53.2872 14.4605 53.2205 14.1133 53.1689C12.3168 52.9019 9.25823 51.9674 6.92731 49.8253C4.59941 47.6863 5.53238 48.3538 4.40014 47.4162C3.27091 46.4787 2.60364 46.6122 2.13866 46.8155C1.84277 46.9429 1.33251 47.1523 1.00038 47.2858C0.810162 47.3647 0.782988 47.3434 0.782988 47.3434C0.782988 47.3434 0.752795 47.3161 0.897723 47.1462C1.60726 46.3027 3.93214 43.751 6.53178 43.1412C11.1242 41.6727 12.1809 42.6224 12.1809 42.6224C12.1809 42.6224 14.5269 47.7075 13.9955 47.574C13.4641 47.4405 9.65678 43.9543 5.73468 45.0132C2.89048 45.7839 3.20449 45.9508 3.20449 45.9508C3.20449 45.9508 5.73468 44.816 8.19543 45.6838C10.6592 46.5515 11.9998 47.6893 14.1888 49.0273C16.3808 50.3623 18.5094 51.5669 18.5094 51.9006C18.5094 52.2101 17.341 53.3024 16.8337 53.894C16.6224 54.2065 16.0789 54.9863 15.8645 55.1592C15.6018 55.3747 11.2721 55.3109 9.07707 55.3109C5.95811 55.3109 2.93879 56.9676 2.90557 57.1344C2.87236 57.3043 5.5505 55.7357 8.67852 56.0907C11.8065 56.4487 15.1157 56.1544 15.1157 56.2849C15.1157 56.4154 14.4001 57.3499 14.0016 58.2206C13.603 59.0884 13.4641 59.4039 13.1683 59.7104C13.0052 59.8803 8.61511 59.055 6.95147 58.518C5.28782 57.984 4.15557 57.714 2.4255 58.518C1.61028 58.8972 1.03057 59.1885 0.638061 59.41C0.200259 59.6558 0.224414 59.6497 0.200259 59.6558C0.15195 59.6679 0.103641 59.6709 0.399534 59.1642Z" fill="#DC1F26"/>
<path d="M21.5262 53.2811C20.8288 53.4055 20.9012 52.7532 20.0045 52.653C19.1078 52.5529 17.4109 54.5584 16.5111 55.5627C15.6114 56.564 12.3203 62.08 12.7189 62.6838C13.1174 63.2845 14.7388 62.4835 16.2726 62.6838C17.8094 62.884 21.2001 62.5836 22.1995 62.2833L23.1989 61.9798C23.1989 61.9798 23.0691 60.5751 22.7853 59.5738C22.4985 58.5695 21.333 59.9743 19.9049 60.3778C17.3022 61.103 15.711 61.279 14.7146 61.7796C13.7152 62.2833 14.7146 61.5824 15.6114 60.8785C16.5111 60.1776 18.7062 59.8742 19.4036 59.4706C20.1011 59.0701 21.8765 59.0701 22.5377 57.2649C23.1989 55.4596 24.0957 54.0548 23.6971 53.5542C23.2986 53.0535 23.3559 52.9534 21.5262 53.2811Z" fill="#DC1F26"/>
<path d="M43.8326 38.6266C43.8326 38.6266 42.4346 40.4592 41.0367 43.466C39.6387 46.4758 39.3036 48.2144 39.3036 48.2144C39.3036 48.2144 37.3863 49.9256 35.7136 51.0209C33.0596 52.7503 30.9008 53.1872 31.3688 52.0495C31.8368 50.9117 33.9232 47.3314 35.3151 45.599C36.713 43.8695 39.5361 40.5927 40.777 40.0557C41.0125 39.9525 41.3024 39.8797 41.2662 39.8797C41.1907 39.8736 40.6049 39.9404 39.7022 40.4167C37.2595 41.6971 35.2215 45.0741 34.6901 45.6748C34.373 46.042 33.7631 46.8308 33.3404 47.3982C33.0627 47.7623 32.649 48.2811 32.649 48.1628C32.655 48.0748 32.6369 46.8581 32.3652 45.8417C32.1659 45.0801 31.8459 44.352 31.71 44.0546C31.6617 43.9636 31.6557 43.9515 31.6677 43.912C31.6798 43.8817 31.704 43.8726 31.7493 43.8392C32.6973 43.2051 38.1019 39.2304 40.3694 38.6236C42.7637 37.9834 43.8326 38.6266 43.8326 38.6266Z" fill="#DC1F26"/>
<path d="M53.4399 59.4857C52.5794 58.0111 50.5866 54.8253 48.5576 53.8302C47.1959 53.1627 46.3868 52.4739 45.8614 52.3253C45.33 52.1766 45.0643 52.3677 44.6355 52.5983C44.3125 52.7743 43.7871 52.9837 42.9538 53.1839C41.8034 53.4661 40.6953 53.6967 39.9948 53.8393C39.5178 53.9333 39.4242 53.9637 39.2279 53.9637C38.9441 53.9637 38.6331 53.9515 38.5214 53.9121C38.3372 53.8544 38.5154 53.7634 38.6211 53.7209C38.6814 53.7058 38.7448 53.6906 38.7992 53.6754C39.0709 53.6087 39.3759 53.545 39.7261 53.4903C41.5256 53.2233 44.5842 52.2888 46.9151 50.1468C49.24 48.0077 48.307 48.6783 49.4393 47.7407C50.5715 46.8032 51.2388 46.9367 51.7038 47.137C51.9997 47.2644 52.5069 47.4737 52.8421 47.6103C53.0323 47.6861 53.0595 47.6649 53.0595 47.6649C53.0595 47.6649 53.0896 47.6376 52.9417 47.4707C52.2352 46.6242 49.9103 44.0755 47.3107 43.4657C42.7213 41.9942 41.6615 42.9469 41.6615 42.9469C41.6615 42.9469 39.3155 48.029 39.8499 47.8955C40.3813 47.762 44.1917 44.2788 48.1047 45.3347C50.952 46.1054 50.6349 46.2722 50.6349 46.2722C50.6349 46.2722 48.1047 45.1375 45.647 46.0052C43.1893 46.873 41.8427 48.0108 39.6567 49.3488C37.4616 50.6868 35.333 51.8914 35.333 52.2251C35.333 52.5316 36.5015 53.6238 37.0148 54.2155C37.2261 54.528 37.7696 55.3078 37.981 55.4837C38.2406 55.6961 42.5703 55.6324 44.7684 55.6324C47.8813 55.6324 50.9006 57.289 50.9369 57.4559C50.9731 57.6288 48.2889 56.0572 45.1639 56.4122C42.0389 56.7702 38.7297 56.4759 38.7297 56.6094C38.7297 56.7429 39.4423 57.6744 39.8439 58.5421C40.2394 59.4129 40.3813 59.7254 40.6742 60.0319C40.8403 60.2018 45.2334 59.3765 46.891 58.8395C48.5607 58.3055 49.6869 58.0385 51.42 58.8395C52.2352 59.2187 52.8119 59.51 53.2074 59.7315C53.6452 59.9772 53.621 59.9712 53.6452 59.9772C53.6875 59.9894 53.7328 59.9924 53.4399 59.4857Z" fill="#DC1F26"/>
<path d="M32.3132 53.6061C33.0076 53.7305 32.9321 53.0781 33.8349 52.978C34.7317 52.8809 36.4225 54.8865 37.3253 55.8877C38.222 56.889 41.5191 62.4049 41.1175 63.0087C40.716 63.6125 39.1006 62.8115 37.5608 63.0087C36.0269 63.209 32.6302 62.9086 31.6338 62.6082L30.6375 62.3048C30.6375 62.3048 30.7673 60.9 31.0511 59.8988C31.3349 58.8975 32.5004 60.3023 33.9285 60.7028C36.5282 61.428 38.1224 61.604 39.1187 62.1046C40.1212 62.6082 39.1187 61.9074 38.222 61.2034C37.3253 60.4995 35.1272 60.1992 34.4297 59.7987C33.7292 59.3982 31.9599 59.3982 31.2987 57.5898C30.6375 55.7846 29.7407 54.3798 30.1362 53.8791C30.5408 53.3815 30.4805 53.2784 32.3132 53.6061Z" fill="#DC1F26"/>
<path d="M11.9094 1.95329C11.7765 2.15051 10.1672 2.16264 9.7234 2.3993C8.2077 3.20637 7.51929 2.36593 7.74272 1.96239C8.01446 1.4648 8.59719 1.1978 9.36108 1.11285C10.8979 0.945973 12.003 1.81372 11.9094 1.95329ZM50.8496 37.3551L33.4825 20.4825L33.6817 18.4042L30.7862 18.4133L30.9462 18.0158L14.5573 2.0959C14.5573 2.0959 14.5241 2.09589 14.2071 2.06555C13.8901 2.02914 13.3104 2.34772 13.0265 2.26277C12.7457 2.18085 12.6612 2.06555 12.5616 1.77731C12.4589 1.49514 12.2053 1.14622 11.3689 0.785166C10.4239 0.372528 9.5211 0.445347 8.52171 0.763927C7.52231 1.07947 7.20528 1.74697 7.13584 2.0959C7.07243 2.44785 7.2234 2.88779 7.68535 3.28223C8.2862 3.79802 10.5839 3.10018 11.3961 2.88173C12.2113 2.66327 12.6854 4.10447 12.6854 4.10447L19.1286 10.3638L20.907 9.61438L21.6558 12.8457L25.7017 16.79C25.7017 16.79 26.3146 17.2482 27.0483 17.8155C27.7457 18.3526 28.4341 18.2858 28.4341 18.2858L29.3852 17.949L33.6546 18.4406L33.0839 22.1877L37.2989 26.9694L37.5706 28.3651L48.8629 39.0512C48.8629 39.0512 48.6847 39.2059 49.6811 38.3442C50.6835 37.4795 50.8496 37.3551 50.8496 37.3551Z" fill="#DC1F26"/>
<path d="M38.5307 25.5554C37.9601 25.0275 37.0694 24.096 36.1847 23.1403L37.8242 24.7423C37.0814 23.9656 36.0911 22.8399 35.2427 21.8629L33.7753 20.2791C35.451 21.7962 37.9087 24.4328 38.9111 25.783C38.9896 25.8892 38.6122 25.6313 38.5307 25.5554ZM37.3109 27.9979C35.9311 26.7387 32.7578 23.1373 32.1328 22.5183C32.0724 22.4576 32.2082 22.4182 32.2747 22.4758C33.9504 23.9413 36.6255 26.7994 37.6883 28.2285C37.7698 28.3316 37.3924 28.0707 37.3109 27.9979ZM34.1617 26.141C33.6001 25.8255 33.0718 25.1822 33.0778 25.3339C33.0778 25.4553 32.8665 26.6052 32.7638 27.1028C32.7457 27.2485 32.7215 27.3334 32.7215 27.3334C32.7215 27.3334 32.7396 27.2424 32.7638 27.1028C32.8393 26.5506 32.8061 25.1307 30.8465 24.1901C28.413 23.022 24.4184 24.5967 24.4184 24.5967C24.4184 24.5967 25.6714 23.829 26.9848 23.5772C28.2982 23.3254 29.8803 23.4892 30.5053 23.5408C30.9582 23.5772 31.1907 22.7489 31.1243 22.2452C31.0639 21.7416 31.2179 21.6141 31.2179 21.6141C31.2179 21.6141 31.1243 23.1676 32.3079 24.1749C33.1865 24.9243 34.4727 26.0166 34.4727 26.0166C34.4727 26.0166 34.7264 26.4566 34.1617 26.141ZM24.7354 18.1522C24.5361 18.1371 23.5035 17.9004 23.2258 17.597C22.8514 17.1874 22.5373 16.4653 22.5373 16.4653C22.7517 16.5927 23.1473 17.1388 23.6454 17.6304C24.1104 18.0885 24.7354 18.1522 24.7354 18.1522ZM26.9214 20.0667C28.0506 19.8938 29.4908 20.7464 31.1303 20.5128C32.3501 20.3368 33.0597 19.8028 33.2831 19.4903C33.3375 19.4114 33.3526 19.3234 33.3586 19.2293C33.3767 18.8652 32.2807 18.7924 32.2807 18.7924C32.2807 18.7924 32.5706 18.7591 33.0838 18.7924C33.2439 18.8015 33.7088 19.0261 33.4311 19.4326C33.419 19.4539 33.413 19.4842 33.3948 19.5145C33.3948 19.5145 33.3948 19.5176 33.3948 19.5206C33.2892 19.7209 33.0416 20.0334 32.3924 20.3337C31.3296 20.8283 29.8683 20.9102 29.0651 20.6432C28.271 20.3793 27.0724 20.176 26.6708 20.5128C26.2723 20.8465 24.8079 22.9855 24.8079 22.9855L24.675 23.2556C24.5422 23.5195 24.6479 23.5469 24.515 23.2799C24.3822 23.0129 26.3296 20.1578 26.9214 20.0667ZM29.9377 18.8167C30.762 18.9168 32.0844 18.7924 32.0844 18.7924C32.0844 18.7924 31.9788 18.8046 31.7886 18.8167C31.2632 18.8592 31.2209 19.1292 29.678 18.9138C28.422 18.7408 27.7457 18.3525 27.7457 18.3525C27.7457 18.3525 28.3194 18.6256 29.9377 18.8167ZM30.6593 13.9895C30.7137 13.7316 30.8526 14.6084 31.1364 15.0453C31.4142 15.4762 31.8973 15.8615 31.8973 15.8615C31.8973 15.8615 31.1243 15.5763 30.8526 15.0878C30.5355 14.4992 30.605 14.2474 30.6593 13.9895ZM38.9745 24.9304C38.7088 23.7289 37.5132 21.0528 36.6557 19.7148C35.7952 18.3768 34.8501 17.7093 33.3828 16.6382C31.9214 15.5702 32.1871 13.9652 31.5259 13.5616C30.8586 13.1611 30.4238 13.3038 30.0102 13.9621C29.3369 15.0362 30.3212 17.4392 29.3912 17.8428C28.9685 18.0248 28.8598 18.2797 27.3351 18.0551C26.6557 17.955 26.2572 17.8792 25.6774 18.1219C25.2547 18.2948 25.1038 18.216 25.3121 17.861C25.8586 16.9265 26.4504 15.5126 26.7282 15.0423C27.3049 14.0744 27.9782 13.4099 28.4431 12.7819C28.7723 12.3419 28.9594 12.081 28.9866 11.5774C29.0078 11.1799 28.7088 10.9372 28.2922 10.9705C27.8785 11.0009 27.7064 11.3134 27.4136 11.5379C27.3049 11.6229 27.1901 11.7169 27.0663 11.8231C25.8616 12.8577 23.9776 14.924 23.3043 16.1103C22.8363 16.9356 22.5645 16.5715 21.9003 15.7674C21.236 14.9634 21.6165 13.3068 21.6165 11.8352C21.6165 10.3637 21.2028 9.91163 21.3417 8.94982C21.4745 8.01229 20.7409 7.41154 19.9437 7.94554C19.1466 8.47954 19.1466 10.2211 18.8809 10.7551C18.6152 11.2891 18.8809 15.0362 19.0138 16.1042C19.1466 17.1753 21.6285 20.4733 21.3024 21.2743C20.9794 22.0784 21.5259 23.5802 21.3326 24.1173C21.2602 24.3297 21.082 24.3114 20.8556 24.1688C20.5204 23.9656 20.3755 23.6197 19.98 23.3011C19.7354 23.1039 19.2433 22.7368 19.0561 22.5122C18.733 22.1269 18.5277 21.6961 18.5458 21.0225C18.57 19.9515 17.9751 18.4192 17.1539 18.2433C16.8701 18.1826 16.3145 18.4556 16.2723 18.9108C16.1817 20.0334 16.4866 21.4503 17.2837 23.7259C18.0808 25.9984 18.7481 25.9984 20.3453 26.7994C21.9425 27.6034 22.6068 27.6034 23.5307 27.7369C24.4546 27.8704 23.9383 28.808 25.6684 30.68C27.3985 32.552 27.797 32.6856 28.4431 33.1467C29.0893 33.6079 27.4347 34.0388 26.7704 34.6911C23.5307 37.8678 20.8828 43.0075 20.8828 43.0075L22.0724 43.8662C22.0724 43.8662 23.0808 41.3964 24.4909 39.6549C25.9009 37.9133 26.7704 37.0971 26.7704 37.0971C26.7704 37.0971 27.9329 38.2744 29.2433 39.9674C30.5536 41.6604 31.2843 42.9317 31.2843 42.9317L33.3828 41.3782C33.3828 41.3782 34.7143 38.0347 35.0464 37.0971C35.3816 36.1626 38.1774 30.413 38.3073 29.342C38.4431 28.274 39.2372 26.1319 38.9745 24.9304Z" fill="#DC1F26"/>
<path d="M38.4492 25.3462L38.7089 25.598L38.5247 25.4008C38.4945 25.3826 38.4734 25.3644 38.4492 25.3462Z" fill="#DC1F26"/>
<path d="M2.99635 78.4092H2.72763V80.2752H2.05432V78.4092H1.79164V80.2752H1.11531V78.4092H0.849609V80.4997H2.99635V78.4092Z" fill="#767576"/>
<path d="M3.73054 78.4092V79.3407H3.81207L4.52765 78.4092H4.85071L4.06267 79.368C4.40687 79.4165 4.53972 79.6259 4.64842 79.908C4.7239 80.1204 4.78429 80.3176 4.87789 80.4997H4.58501C4.50953 80.3571 4.45216 80.172 4.3948 80.0082C4.3012 79.729 4.16835 79.5439 3.81509 79.5439H3.73054V80.4997H3.46484V78.4092H3.73054Z" fill="#767576"/>
<path d="M5.24387 79.4683C5.24387 79.9112 5.48541 80.3148 5.90812 80.3148C6.33384 80.3148 6.57539 79.9173 6.57539 79.444C6.57539 79.0283 6.36102 78.5944 5.91114 78.5944C5.4673 78.5944 5.24387 79.0101 5.24387 79.4683ZM6.85921 79.4349C6.85921 80.154 6.42442 80.5362 5.89302 80.5362C5.3435 80.5362 4.95703 80.1054 4.95703 79.4743C4.95703 78.8068 5.36766 78.376 5.92321 78.376C6.49085 78.376 6.85921 78.8129 6.85921 79.4349Z" fill="#767576"/>
<path d="M8.56385 78.4092V80.4997H8.29211V78.6367H7.6037V79.2709C7.6037 79.7199 7.58257 80.2266 7.28969 80.4269C7.21421 80.4784 7.09344 80.527 6.97267 80.527L6.93945 80.3116C7.02097 80.2934 7.11155 80.2448 7.15684 80.1993C7.32291 80.0324 7.34102 79.6289 7.34102 79.2921V78.4092H8.56385Z" fill="#767576"/>
<path d="M10.0476 79.6319L9.84527 79.0312C9.79998 78.8946 9.76677 78.7702 9.73657 78.6489H9.73053C9.69732 78.7733 9.66713 78.9007 9.62486 79.0281L9.41954 79.6319H10.0476ZM9.3652 79.8413L9.15082 80.4997H8.87305L9.58259 78.4092H9.90566L10.6152 80.4997H10.3284L10.1049 79.8413H9.3652Z" fill="#767576"/>
<path d="M11.8409 78.4092V79.3407H11.9224L12.638 78.4092H12.9611L12.173 79.368C12.5172 79.4165 12.6501 79.6259 12.7588 79.908C12.8343 80.1204 12.8946 80.3176 12.9852 80.4997H12.6954C12.6229 80.3571 12.5625 80.172 12.5051 80.0082C12.4085 79.729 12.2787 79.5439 11.9254 79.5439H11.8409V80.4997H11.5752V78.4092H11.8409Z" fill="#767576"/>
<path d="M13.5017 78.4092V79.2921C13.5017 79.6228 13.4956 79.8959 13.4775 80.175L13.4836 80.1781C13.5892 79.9626 13.7191 79.7351 13.87 79.4863L14.5433 78.4092H14.8121V80.4997H14.5584V79.6107C14.5584 79.2739 14.5615 79.0251 14.5826 78.7611L14.5735 78.7581C14.4709 78.9857 14.329 79.2284 14.1871 79.459L13.5349 80.4997H13.248V78.4092H13.5017Z" fill="#767576"/>
<path d="M16.5828 78.4092H15.043V78.6398H15.674V80.4997H15.9457V78.6398H16.5828V78.4092Z" fill="#767576"/>
<path d="M17.5827 79.6324L17.3804 79.0317C17.3321 78.8951 17.3049 78.7707 17.2717 78.6494H17.2657C17.2355 78.7738 17.2023 78.9012 17.16 79.0286L16.9577 79.6324H17.5827ZM16.9004 79.8418L16.686 80.5002H16.4082L17.1147 78.4097H17.4378L18.1473 80.5002H17.8605L17.6371 79.8418H16.9004Z" fill="#767576"/>
<path d="M19.0469 77.9727C19.0589 78.0667 19.0922 78.1638 19.2371 78.1638C19.379 78.1638 19.4122 78.0728 19.4273 77.9727H19.6326C19.6175 78.1759 19.4937 78.3034 19.231 78.3034C18.9774 78.3034 18.8566 78.1759 18.8416 77.9727H19.0469ZM18.7087 78.4096V79.2925C18.7087 79.6232 18.7027 79.8963 18.6845 80.1754L18.6906 80.1784C18.7963 79.963 18.9261 79.7355 19.0771 79.4867L19.7504 78.4096H20.0161V80.5001H19.7624V79.6111C19.7624 79.2743 19.7655 79.0255 19.7866 78.7615L19.7775 78.7585C19.6749 78.986 19.533 79.2288 19.3941 79.4594L18.7419 80.5001H18.4551V78.4096H18.7087Z" fill="#767576"/>
<path d="M21.9395 80.4331C21.8398 80.4847 21.6405 80.5332 21.3899 80.5332C20.8042 80.5332 20.3604 80.16 20.3604 79.4743C20.3604 78.819 20.8012 78.376 21.4473 78.376C21.707 78.376 21.87 78.4336 21.9395 78.47L21.8761 78.6885C21.7734 78.6369 21.6285 78.6005 21.4564 78.6005C20.9672 78.6005 20.6442 78.916 20.6442 79.4652C20.6442 79.9749 20.937 80.3026 21.4443 80.3026C21.6073 80.3026 21.7734 80.2693 21.8821 80.2177L21.9395 80.4331Z" fill="#767576"/>
<path d="M22.543 78.4097V79.3411H22.6276L23.3401 78.4097H23.6632L22.8752 79.3684C23.2194 79.417 23.3522 79.6263 23.4609 79.9085C23.5364 80.1209 23.5938 80.3181 23.6874 80.5002H23.3975C23.3251 80.3576 23.2647 80.1725 23.2073 80.0086C23.1137 79.7295 22.9808 79.5444 22.6276 79.5444H22.543V80.5002H22.2773V78.4097H22.543Z" fill="#767576"/>
<path d="M24.0564 79.4683C24.0564 79.9112 24.2979 80.3148 24.7206 80.3148C25.1463 80.3148 25.3879 79.9173 25.3879 79.444C25.3879 79.0283 25.1705 78.5944 24.7236 78.5944C24.2798 78.5944 24.0564 79.0101 24.0564 79.4683ZM25.6717 79.4349C25.6717 80.154 25.2369 80.5362 24.7055 80.5362C24.156 80.5362 23.7695 80.1054 23.7695 79.4743C23.7695 78.8068 24.1802 78.376 24.7357 78.376C25.3033 78.376 25.6717 78.8129 25.6717 79.4349Z" fill="#767576"/>
<path d="M26.6134 77.9727C26.6254 78.0667 26.6587 78.1638 26.8036 78.1638C26.9455 78.1638 26.9787 78.0728 26.9938 77.9727H27.1991C27.184 78.1759 27.0602 78.3034 26.7975 78.3034C26.5439 78.3034 26.4231 78.1759 26.408 77.9727H26.6134ZM26.2722 78.4096V79.2925C26.2722 79.6232 26.2661 79.8963 26.248 80.1754L26.2541 80.1784C26.3597 79.963 26.4896 79.7355 26.6405 79.4867L27.3138 78.4096H27.5856V80.5001H27.3289V79.6111C27.3289 79.2743 27.332 79.0255 27.3531 78.7615L27.344 78.7585C27.2414 78.986 27.0995 79.2288 26.9576 79.4594L26.3054 80.5001H26.0186V78.4096H26.2722Z" fill="#767576"/>
<path d="M28.8541 78.4097L29.4972 79.3411H29.5787V78.4097H29.8384V79.3411H29.9199L30.563 78.4097H30.877L30.1403 79.3715C30.4694 79.4049 30.5992 79.6112 30.7079 79.9085C30.7774 80.1057 30.8257 80.3121 30.9132 80.5002H30.6355C30.566 80.3606 30.5177 80.1603 30.4634 80.0117C30.3698 79.7234 30.2641 79.5444 29.9259 79.5444H29.8384V80.5002H29.5787V79.5444H29.4851C29.153 79.5444 29.0473 79.7265 28.9477 80.0117C28.8963 80.1603 28.848 80.3606 28.7786 80.5002H28.5068C28.5944 80.309 28.6427 80.1057 28.7121 79.9116C28.8148 79.6172 28.9477 79.414 29.2737 79.3715L28.534 78.4097H28.8541Z" fill="#767576"/>
<path d="M31.4294 78.4097V79.2926C31.4294 79.6233 31.4234 79.8964 31.4053 80.1755L31.4113 80.1786C31.517 79.9631 31.6468 79.7356 31.8008 79.4868L32.4741 78.4097H32.7398V80.5002H32.4862V79.6112C32.4862 79.2744 32.4922 79.0256 32.5164 78.7616L32.5043 78.7586C32.4046 78.9861 32.2567 79.2289 32.1208 79.4595L31.4656 80.5002H31.1758V78.4097H31.4294Z" fill="#767576"/>
<path d="M33.4766 80.2969C33.531 80.306 33.6065 80.3091 33.7061 80.3091C33.9839 80.3091 34.2375 80.2089 34.2375 79.9025C34.2375 79.6173 33.996 79.4989 33.7001 79.4989H33.4766V80.2969ZM33.4766 79.2957H33.7242C34.008 79.2957 34.1711 79.147 34.1711 78.9437C34.1711 78.701 33.9869 78.6039 33.7182 78.6039C33.5944 78.6039 33.5249 78.613 33.4766 78.6221V79.2957ZM33.2109 78.44C33.3287 78.4158 33.5129 78.3945 33.7001 78.3945C33.9718 78.3945 34.1409 78.4431 34.2707 78.5493C34.3764 78.6282 34.4428 78.7526 34.4428 78.9164C34.4428 79.1166 34.313 79.2957 34.0896 79.3745V79.3806C34.2888 79.4322 34.5213 79.596 34.5213 79.9055C34.5213 80.0876 34.4519 80.2211 34.3432 80.3273C34.2013 80.4608 33.9658 80.5214 33.6246 80.5214C33.4404 80.5214 33.3015 80.5093 33.2109 80.4972V78.44Z" fill="#767576"/>
<path d="M35.0223 79.4683C35.0223 79.9112 35.2638 80.3148 35.6895 80.3148C36.1153 80.3148 36.3568 79.9173 36.3568 79.444C36.3568 79.0283 36.1394 78.5944 35.6895 78.5944C35.2457 78.5944 35.0223 79.0101 35.0223 79.4683ZM36.6376 79.4349C36.6376 80.154 36.1998 80.5362 35.6714 80.5362C35.1219 80.5362 34.7324 80.1054 34.7324 79.4743C34.7324 78.8068 35.1461 78.376 35.6986 78.376C36.2723 78.376 36.6376 78.8129 36.6376 79.4349Z" fill="#767576"/>
<path d="M38.488 78.4092H36.9844V80.4997H37.2561V78.6367H38.2223V80.4997H38.488V78.4092Z" fill="#767576"/>
<path d="M39.2155 78.4092V79.2921C39.2155 79.6228 39.2095 79.8959 39.1914 80.175L39.1974 80.1781C39.2971 79.9626 39.4329 79.7351 39.5809 79.4863L40.2542 78.4092H40.5259V80.4997H40.2723V79.6107C40.2723 79.2739 40.2723 79.0251 40.2965 78.7611L40.2904 78.7581C40.1847 78.9857 40.0428 79.2284 39.9009 79.459L39.2518 80.4997H38.9619V78.4092H39.2155Z" fill="#767576"/>
<path d="M42.4464 80.4331C42.3467 80.4847 42.1505 80.5332 41.8969 80.5332C41.3081 80.5332 40.8643 80.16 40.8643 79.4743C40.8643 78.819 41.3051 78.376 41.9542 78.376C42.2139 78.376 42.3739 78.4336 42.4494 78.47L42.38 78.6885C42.2803 78.6369 42.1384 78.6005 41.9603 78.6005C41.4772 78.6005 41.1511 78.916 41.1511 79.4652C41.1511 79.9749 41.4409 80.3026 41.9482 80.3026C42.1143 80.3026 42.2773 80.2693 42.386 80.2177L42.4464 80.4331Z" fill="#767576"/>
<path d="M43.0349 78.4092V79.2921C43.0349 79.6228 43.0288 79.8959 43.0107 80.175L43.0168 80.1781C43.1224 79.9626 43.2523 79.7351 43.4002 79.4863L44.0796 78.4092H44.3453V80.4997H44.0916V79.6107C44.0916 79.2739 44.0977 79.0251 44.1158 78.7611L44.1098 78.7581C44.0041 78.9857 43.8622 79.2284 43.7203 79.459L43.0711 80.4997H42.7812V78.4092H43.0349Z" fill="#767576"/>
<path d="M46.5747 78.4092H45.4727V80.4997H45.7384V78.6367H46.5747V78.4092Z" fill="#767576"/>
<path d="M47.0121 78.4092L47.4257 79.3012C47.4801 79.4256 47.5254 79.547 47.5737 79.6714H47.5797C47.622 79.5621 47.6552 79.4408 47.7095 79.2921L48.0326 78.4092H48.3164L47.8847 79.4832C47.7669 79.7624 47.6371 80.081 47.4952 80.2782C47.3593 80.4481 47.2053 80.5361 47.0242 80.5361C46.9547 80.5361 46.9064 80.53 46.8702 80.5179L46.9004 80.2964C46.9185 80.3055 46.9547 80.3085 46.994 80.3085C47.2114 80.3055 47.3412 80.0961 47.4016 79.9475C47.4257 79.8989 47.4197 79.8686 47.3955 79.82L46.7041 78.4092H47.0121Z" fill="#767576"/>
<path d="M50.089 78.4097H49.8173V79.2865H48.8088V78.4097H48.5371V80.5002H48.8088V79.5202H49.8173V80.5002H50.089V78.4097Z" fill="#767576"/>
<path d="M50.8194 80.2935C50.8828 80.3086 50.9553 80.3117 51.0428 80.3117C51.2149 80.3117 51.384 80.254 51.4837 80.1478C51.5531 80.075 51.5954 79.9688 51.5954 79.8383C51.5954 79.6775 51.532 79.5683 51.4233 79.4985C51.3176 79.4257 51.1757 79.3923 51.0277 79.3923C50.9674 79.3923 50.8858 79.3984 50.8164 79.4045V80.2935H50.8194ZM51.7222 78.4093V78.6368H50.8194V79.2012C50.8828 79.189 51.0096 79.183 51.0791 79.183C51.2723 79.183 51.4686 79.2285 51.6165 79.3225C51.7765 79.4257 51.8822 79.5926 51.8822 79.8353C51.8822 80.0295 51.8188 80.1782 51.7041 80.2874C51.538 80.4573 51.2572 80.521 50.9734 80.521C50.7832 80.521 50.6443 80.5058 50.5537 80.4937V78.4062H51.7222V78.4093Z" fill="#767576"/>
<path d="M52.4831 78.4093V79.2922C52.4831 79.6229 52.4771 79.896 52.459 80.1752L52.465 80.1782C52.5707 79.9628 52.7005 79.7352 52.8485 79.4864L53.5218 78.4093H53.7935V80.4998H53.5399V79.6108C53.5399 79.274 53.5459 79.0252 53.564 78.7613L53.558 78.7582C53.4523 78.9858 53.3104 79.2285 53.1685 79.4591L52.5193 80.4998H52.2295V78.4093H52.4831Z" fill="#767576"/>
<path d="M9.94952 73.9403H5.82211V68.6883H9.15242V67.7568H1.51957V68.6883H4.8529V73.9403H0.761719V74.8748H9.94952V73.9403Z" fill="#DC1F26"/>
<path d="M18.3406 69.7045C18.1987 69.2251 18.0054 68.7457 17.7518 68.2633H17.1178C16.7253 69.0552 16.4565 69.5225 16.3176 69.662L15.6021 69.1098C16.1908 68.2906 16.5984 67.3318 16.8249 66.2305L17.6673 66.3154C17.9481 66.3731 17.933 66.4823 17.625 66.6522C17.5676 66.8767 17.4861 67.1468 17.3714 67.4562H20.5749V68.2633H18.6365C18.8599 68.6304 19.0441 69.0704 19.183 69.5771L18.3406 69.7045ZM16.0217 70.8059V71.6524L19.6057 71.1882L19.6902 71.9073L16.0248 72.3715V73.1786L20.5356 72.6688L20.5779 73.3879L16.0248 73.8976V74.8716C16.0248 75.0658 16.1516 75.1689 16.4022 75.1689H19.4819C19.7627 75.1689 19.9288 75.0688 19.9861 74.8716L20.1552 74.2799L21.0399 74.4893L20.8708 75.1234C20.7289 75.6908 20.3364 75.973 19.6872 75.973H15.9795C15.4451 75.973 15.1763 75.7029 15.1763 75.1659V74.022L11.4263 74.4043L11.381 73.6852L15.1763 73.306V72.4595L12.0151 72.8387L11.9728 72.1196L15.1763 71.7374V70.9333L12.6039 71.3126L12.3925 70.5935C14.8382 70.284 16.6498 69.9321 17.8303 69.5346L18.4614 70.1687C18.6304 70.4539 18.5459 70.5237 18.2108 70.3811L16.0217 70.8059ZM13.875 69.7045C13.8176 69.1978 13.6908 68.7184 13.4946 68.2633H13.0719C12.7609 68.9156 12.4106 69.4648 12.0181 69.9169L11.3418 69.3252C12.0725 68.3907 12.5797 67.4016 12.8605 66.3579L13.7452 66.4429C13.9958 66.4975 13.9837 66.5976 13.7029 66.7372L13.4493 67.4562H16.064V68.2633H14.4608C14.6298 68.6304 14.7567 69.0704 14.8412 69.5771L13.875 69.7045Z" fill="#DC1F26"/>
<path d="M27.2778 71.6131V72.9663H28.5852V71.6131H27.2778ZM28.5852 70.9335V69.7047H27.2778V70.9335H28.5852ZM26.5622 72.9663V71.6131H25.2548V72.9663H26.5622ZM26.5622 70.9335V69.7047H25.2548V70.9335H26.5622ZM30.3092 74.5744V68.6883H31.1123C31.3358 68.7186 31.3539 68.8005 31.1546 68.9431V75.8912H30.3092V75.3815H23.5278V75.9337H22.6824V68.6458H23.4825C23.709 68.6761 23.721 68.758 23.5248 68.9006V74.5744H30.3092ZM27.2778 69.025H29.3007V73.6429H24.5393V69.025H26.5622H27.2778ZM26.5622 67.7568H22.2627V66.9497H31.6618V67.7568H27.2778H26.5622Z" fill="#DC1F26"/>
<path d="M37.6947 66.3578C38.1144 66.8948 38.3952 67.3317 38.531 67.6716L37.6464 68.1358C37.4229 67.6291 37.1693 67.1891 36.8915 66.822L37.6947 66.3578ZM35.2037 68.1358C34.9501 67.6291 34.6965 67.2347 34.4429 66.9494L35.246 66.4852C35.554 66.822 35.8348 67.2164 36.0884 67.6716L35.2037 68.1358ZM40.2641 68.1813H42.3294V70.5115H41.487V68.9853H34.0685V70.6389H33.2261V68.1813H39.3342L40.2188 66.3184L41.1095 66.7431C41.2152 66.8827 41.1729 66.9677 40.9797 66.995L40.2641 68.1813ZM37.3928 71.2306L38.1114 71.273L39.3312 70.554H34.8626V69.8743H40.0528L40.1766 69.7499L40.8952 70.4296C40.9767 70.5418 40.9073 70.5995 40.6838 70.5995C39.8414 71.1335 39.0262 71.5704 38.2351 71.9132V72.338H42.6222V73.142H38.2351V75.3053C38.2351 75.7544 38.0117 75.9819 37.5618 75.9819H36.4266L36.2545 75.0505H37.2267C37.3384 75.0505 37.3928 74.9928 37.3928 74.8806V73.142H33.0117V72.338H37.3928V71.2306Z" fill="#DC1F26"/>
<path d="M51.2211 69.3254C52.1239 69.832 52.7851 70.2841 53.2018 70.6786L52.613 71.4432C52.1662 71.0153 51.5442 70.5663 50.7622 70.0869L51.2211 69.3254ZM47.767 68.9006V68.0935H49.79V66.3155H50.5931C50.8165 66.3428 50.8346 66.4278 50.6354 66.5674V68.0935H53.0418V68.9006H47.767ZM49.7477 70.0444C49.9711 70.2143 49.9198 70.2841 49.5816 70.2538C49.1287 70.7059 48.5098 71.1731 47.7247 71.6525L47.1752 70.8454C47.9059 70.5087 48.549 70.0262 49.1166 69.4042L49.7477 70.0444ZM47.2598 76.1005L46.8823 75.169C48.0901 74.7169 49.0049 74.1799 49.6239 73.5579C49.2586 73.0785 48.8932 72.5142 48.5279 71.8649L49.2012 71.3976C49.5665 72.0469 49.8805 72.5294 50.1281 72.8388C50.3002 72.6447 50.5659 72.0469 50.9313 71.0609L51.8159 71.5251C51.988 71.61 51.9276 71.695 51.6499 71.7799C51.3962 72.4019 51.0822 72.9663 50.7169 73.476C51.3117 73.9554 52.1964 74.4348 53.3769 74.9172L52.8697 75.8517C51.5774 75.26 50.6927 74.7048 50.2157 74.1981C49.7054 74.7867 48.7211 75.4239 47.2598 76.1005ZM46.0792 76.058H45.2368V71.4432C44.9832 72.0924 44.6058 72.7569 44.0985 73.4335L43.5098 72.6689C44.4065 71.5402 44.9711 70.3812 45.1976 69.1949H43.7241V68.3878H45.2398V66.3125H46.043C46.2664 66.3398 46.2785 66.4248 46.0852 66.5643V68.3878H47.1813V69.1949H46.0852V70.6755C46.7586 71.1549 47.2537 71.5949 47.5587 71.9893L46.9639 72.7964C46.6801 72.4019 46.3872 72.0348 46.0792 71.695V76.058Z" fill="#DC1F26"/>
<path d="M59.171 46.157C58.9868 46.2844 58.244 45.8718 57.9572 45.1254C57.4137 43.7055 55.5387 42.2916 55.7229 42.1641C55.9071 42.0367 58.1293 43.9634 58.6184 44.6582C59.1045 45.359 59.3491 46.0296 59.171 46.157ZM58.3165 43.6691C55.7289 40.0585 53.7181 38.8327 52.773 38.3442C51.828 37.8527 51.2332 37.6494 51.2332 37.6494L49.2344 39.4547C49.2344 39.4547 50.0375 41.4602 52.2295 42.865C54.4216 44.2698 58.09 46.3512 59.2163 46.776C59.8111 47.0005 60.1643 47.7529 60.1643 47.3039C60.1613 46.8973 60.1613 46.2359 58.3165 43.6691Z" fill="#DC1F26"/>
</g>
<defs>
<clipPath id="clip0_3_3476">
<rect width="60" height="80" fill="white" transform="translate(0.164062 0.5)"/>
</clipPath>
</defs>
</svg>
