<svg width="150" height="57" viewBox="0 0 150 57" fill="none" xmlns="http://www.w3.org/2000/svg">
<path d="M71.5569 8.97084C70.7383 8.97084 70.0207 8.83587 69.407 8.56785C68.7943 8.29887 68.3194 7.9153 67.9815 7.41714C67.6407 6.91899 67.4727 6.32276 67.4727 5.63427C67.4727 4.93608 67.6416 4.33985 67.9776 3.84266C68.3146 3.34548 68.7884 2.96385 69.3992 2.69681C70.0091 2.43074 70.7296 2.29867 71.5579 2.29867H71.7113V3.33771H71.3686C70.8141 3.33771 70.3315 3.42899 69.9188 3.60669C69.5061 3.78634 69.1856 4.04756 68.9574 4.39034C68.7302 4.73313 68.6156 5.1468 68.6156 5.6333C68.6156 6.1198 68.7292 6.53445 68.9574 6.87626C69.1856 7.21808 69.5061 7.48123 69.9188 7.66088C70.3315 7.83956 70.8141 7.92986 71.3686 7.92986H71.7113V8.9689H71.5569V8.97084ZM71.2549 10.2264V1.04309H72.3688V10.2264H71.2549ZM71.9133 8.97084V7.93181H72.2571C72.8106 7.93181 73.2942 7.84053 73.7069 7.66282C74.1167 7.48318 74.4381 7.22002 74.6673 6.8782C74.8945 6.53542 75.0091 6.12175 75.0091 5.63524C75.0091 5.14874 74.8955 4.7341 74.6673 4.39228C74.4381 4.0495 74.1167 3.78828 73.7069 3.60864C73.2942 3.42996 72.8106 3.33965 72.2571 3.33965H71.9133V2.30062H72.0648C72.8737 2.30062 73.5835 2.43657 74.1963 2.70846C74.81 2.9823 75.2878 3.36781 75.6325 3.865C75.9772 4.36607 76.1491 4.9555 76.1491 5.63524C76.1491 6.32373 75.9792 6.91996 75.6422 7.41811C75.3033 7.91627 74.8275 8.29887 74.2147 8.56882C73.601 8.83684 72.8854 8.97181 72.0638 8.97181H71.9133V8.97084Z" fill="white"/>
<path d="M78.9219 10.0729V1.19543H84.1996V2.2335H80.0269V4.96219H82.7789V6.00122H80.0269V9.02123H84.4783V10.0729H78.9219Z" fill="white"/>
<path d="M90.5729 10.2264C89.9 10.2264 89.33 10.0953 88.859 9.83315C88.39 9.57096 88.0112 9.21944 87.7248 8.77664C87.4354 8.33577 87.2266 7.8415 87.0936 7.29674C86.9606 6.751 86.8936 6.19847 86.8936 5.63525C86.8936 5.07689 86.9615 4.5263 87.1004 3.98347C87.2383 3.43968 87.4509 2.94638 87.7432 2.50357C88.0355 2.0598 88.4133 1.70536 88.8823 1.44123C89.3494 1.1771 89.9136 1.04407 90.5729 1.04407C91.1186 1.04407 91.5809 1.12175 91.9586 1.27809C92.3364 1.43541 92.6452 1.63447 92.884 1.87724C93.1239 2.12 93.3074 2.37636 93.4385 2.64146L92.4471 3.14933C92.3082 2.94152 92.1577 2.75702 91.9907 2.59485C91.8266 2.43172 91.6323 2.30256 91.4032 2.21031C91.175 2.11709 90.8972 2.07145 90.5729 2.07145C90.099 2.07145 89.6999 2.17924 89.3746 2.39384C89.0474 2.61039 88.7871 2.89297 88.591 3.24352C88.3938 3.59505 88.2511 3.97959 88.1656 4.39909C88.0773 4.81664 88.0345 5.22837 88.0345 5.63428C88.0345 6.07514 88.085 6.50532 88.1802 6.92773C88.2783 7.35112 88.4298 7.73177 88.6376 8.07262C88.8444 8.41443 89.1066 8.68439 89.4271 8.8854C89.7456 9.08543 90.1272 9.18643 90.5719 9.18643C91.0614 9.18643 91.4537 9.08252 91.7518 8.87277C92.048 8.66302 92.2965 8.39112 92.4985 8.05805L93.5152 8.43871C93.3618 8.7679 93.155 9.0699 92.8918 9.33985C92.6316 9.61078 92.3082 9.82538 91.9266 9.98658C91.544 10.1458 91.0924 10.2264 90.5729 10.2264Z" fill="white"/>
<path d="M98.2096 10.0729V2.24807H95.7363V1.19543H101.786V2.24807H99.3128V10.0739H98.2096V10.0729Z" fill="white"/>
<path d="M104.609 10.0729V1.19543H105.7V7.37139C105.7 7.47723 105.697 7.60735 105.69 7.76078C105.683 7.91421 105.675 8.05696 105.663 8.18319C105.722 8.06181 105.786 7.93266 105.855 7.79962C105.924 7.66562 105.988 7.55394 106.043 7.45975L109.95 1.19446H111.092V10.0729H109.987V4.04841C109.987 3.83575 109.991 3.65804 109.998 3.50947C110.003 3.3609 110.012 3.23757 110.025 3.13464C109.97 3.24049 109.892 3.37449 109.797 3.53763C109.7 3.6998 109.619 3.83186 109.556 3.9348L105.686 10.0719H104.609V10.0729Z" fill="white"/>
<path d="M114.479 10.0729V1.19543H117.624C118.325 1.19543 118.876 1.30711 119.278 1.53434C119.68 1.76156 119.966 2.05385 120.135 2.41315C120.304 2.77147 120.387 3.14921 120.387 3.54152C120.387 3.9484 120.275 4.31352 120.046 4.63979C119.817 4.9651 119.496 5.2166 119.081 5.39334C119.425 5.50015 119.716 5.65552 119.96 5.85848C120.204 6.06434 120.386 6.30808 120.515 6.59163C120.641 6.87324 120.704 7.18592 120.704 7.52385C120.704 7.82488 120.656 8.12396 120.559 8.42596C120.462 8.72602 120.302 9.00083 120.081 9.24942C119.858 9.49996 119.563 9.7 119.193 9.84857C118.823 9.99909 118.368 10.0729 117.826 10.0729H114.479ZM115.581 4.96219H117.407C118.036 4.96219 118.51 4.83303 118.824 4.57473C119.141 4.3174 119.296 3.9785 119.296 3.55415C119.296 3.33857 119.255 3.12688 119.173 2.9181C119.091 2.70738 118.934 2.53647 118.701 2.39955C118.47 2.26457 118.131 2.19757 117.685 2.19757H115.581V4.96219ZM115.581 9.0591H117.952C118.387 9.0591 118.726 8.98724 118.967 8.84255C119.209 8.69883 119.377 8.51627 119.472 8.29099C119.567 8.06764 119.613 7.83653 119.613 7.60153C119.613 7.31604 119.557 7.05191 119.443 6.80041C119.329 6.55084 119.122 6.34983 118.823 6.1964C118.526 6.04006 118.1 5.96529 117.546 5.96529H115.581V9.0591Z" fill="white"/>
<path d="M122.773 10.0729L125.92 1.19446H126.947L130.093 10.0729H128.964L128.203 7.90547H124.677L123.929 10.0729H122.773ZM125.005 6.92761H127.86L126.716 3.64251C126.688 3.55802 126.655 3.45995 126.619 3.3473C126.584 3.23563 126.549 3.12493 126.514 3.01617C126.481 2.91032 126.456 2.81613 126.438 2.74136C126.418 2.81613 126.39 2.91032 126.359 3.01617C126.328 3.12493 126.294 3.23563 126.258 3.3473C126.223 3.45898 126.19 3.55802 126.159 3.64251L125.005 6.92761Z" fill="white"/>
<path d="M132.915 10.2263L132.408 9.32614C132.771 9.21155 133.065 9.07075 133.285 8.90081C133.507 8.73088 133.674 8.51045 133.791 8.23564C133.904 7.96083 133.983 7.60833 134.03 7.18106L134.677 1.19543H135.781L135.097 7.39761C135.007 8.21039 134.792 8.83672 134.448 9.2805C134.107 9.72622 133.594 10.0408 132.915 10.2263ZM139.244 10.0729V2.2335H134.855L135.058 1.19543H140.348V10.0739H139.244V10.0729Z" fill="white"/>
<path d="M143.734 10.0729V1.19543H144.839V4.94956H147.071C147.611 4.94956 148.07 5.02725 148.443 5.18067C148.818 5.33507 149.118 5.539 149.348 5.79244C149.575 6.04686 149.742 6.32264 149.847 6.62367C149.949 6.92373 150.001 7.21796 150.001 7.51219C150.001 7.79866 149.949 8.09289 149.847 8.39392C149.743 8.69301 149.576 8.96976 149.348 9.22321C149.119 9.47762 148.818 9.68252 148.443 9.83886C148.07 9.99617 147.611 10.0729 147.071 10.0729H143.734ZM144.838 9.04647H147.171C147.628 9.04647 147.981 8.97073 148.229 8.81827C148.48 8.66679 148.653 8.47258 148.749 8.23855C148.848 8.00355 148.896 7.76079 148.896 7.51317C148.896 7.26652 148.847 7.02861 148.749 6.79458C148.652 6.56347 148.48 6.36925 148.229 6.21777C147.981 6.06628 147.628 5.99151 147.171 5.99151H144.838V9.04647Z" fill="white"/>
<path d="M68.1074 25.2965V16.4171H69.2125V20.7665L72.6743 16.4171H73.9173L71.4683 19.4857L74.6407 25.2955H73.3609L70.7225 20.4121L69.2125 22.2639V25.2955H68.1074V25.2965Z" fill="white"/>
<path d="M77.4111 25.2965V16.4171H78.5016V22.5931C78.5016 22.6989 78.4987 22.829 78.4929 22.9834C78.4861 23.1369 78.4764 23.2786 78.4657 23.4039C78.523 23.2825 78.589 23.1543 78.658 23.0213C78.7269 22.8873 78.79 22.7747 78.8454 22.6814L82.752 16.4161H83.893V25.2955H82.7898V19.2701C82.7898 19.0574 82.7928 18.8788 82.7986 18.7311C82.8054 18.5826 82.8141 18.4593 82.8287 18.3563C82.7714 18.4612 82.6966 18.5962 82.5985 18.7583C82.5014 18.9215 82.4208 19.0545 82.3587 19.1545L78.49 25.2946H77.4111V25.2965Z" fill="white"/>
<path d="M89.1823 25.2965V17.4697H86.71V16.4171H92.7606V17.4697H90.2864V25.2965H89.1823Z" fill="white"/>
<path d="M93.5723 25.2965L96.7175 16.4171H97.7439L100.891 25.2965H99.7618L99.0005 23.1272H95.4736L94.7259 25.2965H93.5723ZM95.8038 22.1503H98.6577L97.5157 18.8642C97.4866 18.7797 97.4546 18.6816 97.4167 18.5709C97.3827 18.4573 97.3468 18.3476 97.3128 18.2388C97.2788 18.132 97.2545 18.0398 97.2371 17.965C97.2167 18.0398 97.1895 18.132 97.1594 18.2388C97.1273 18.3466 97.0924 18.4573 97.0574 18.5709C97.0215 18.6816 96.9894 18.7797 96.9584 18.8642L95.8038 22.1503Z" fill="white"/>
<path d="M103.479 25.2965V16.4171H104.57V22.5931C104.57 22.6989 104.568 22.829 104.561 22.9834C104.555 23.1369 104.546 23.2786 104.534 23.4039C104.591 23.2825 104.657 23.1543 104.726 23.0213C104.795 22.8873 104.858 22.7747 104.913 22.6814L108.819 16.4162H109.96V25.2955H108.858V19.2701C108.858 19.0574 108.861 18.8788 108.867 18.7312C108.874 18.5826 108.882 18.4593 108.895 18.3563C108.84 18.4612 108.763 18.5962 108.668 18.7584C108.57 18.9215 108.489 19.0545 108.426 19.1545L104.557 25.2946H103.479V25.2965ZM106.689 15.5548C106.131 15.5548 105.666 15.4606 105.295 15.2713C104.925 15.0839 104.649 14.8343 104.466 14.5206C104.281 14.2089 104.189 13.8632 104.189 13.4874H105.179C105.179 13.7205 105.245 13.9225 105.378 14.0924C105.513 14.2633 105.693 14.3963 105.921 14.4886C106.149 14.5828 106.404 14.6284 106.689 14.6284C106.972 14.6284 107.229 14.5828 107.459 14.4886C107.69 14.3963 107.872 14.2633 108.008 14.0924C108.143 13.9225 108.211 13.7205 108.211 13.4874H109.2C109.2 13.8642 109.107 14.2089 108.921 14.5206C108.735 14.8343 108.456 15.0839 108.085 15.2713C107.711 15.4606 107.246 15.5548 106.689 15.5548Z" fill="white"/>
<path d="M116.646 25.4466C115.974 25.4466 115.404 25.3156 114.934 25.0543C114.464 24.7931 114.087 24.4416 113.798 23.9988C113.511 23.5579 113.3 23.0627 113.167 22.517C113.035 21.9722 112.968 21.4197 112.968 20.8555C112.968 20.2971 113.037 19.7455 113.175 19.2037C113.312 18.6599 113.526 18.1676 113.816 17.7238C114.11 17.28 114.487 16.9265 114.957 16.6614C115.423 16.3983 115.988 16.2643 116.646 16.2643C117.193 16.2643 117.654 16.3429 118.032 16.5003C118.41 16.6556 118.719 16.8557 118.959 17.0984C119.196 17.3402 119.384 17.5976 119.513 17.8627L118.523 18.3705C118.382 18.1617 118.231 17.9782 118.066 17.8151C117.903 17.651 117.705 17.5237 117.477 17.4315C117.248 17.3383 116.971 17.2917 116.646 17.2917C116.173 17.2917 115.773 17.3995 115.449 17.6141C115.122 17.8306 114.861 18.1132 114.664 18.4637C114.467 18.8143 114.325 19.1988 114.239 19.6183C114.151 20.0369 114.109 20.4486 114.109 20.8535C114.109 21.2934 114.157 21.7255 114.253 22.1479C114.352 22.5704 114.504 22.953 114.711 23.2919C114.918 23.6346 115.181 23.9056 115.5 24.1046C115.82 24.3056 116.2 24.4066 116.645 24.4066C117.135 24.4066 117.529 24.3027 117.825 24.094C118.122 23.8842 118.37 23.6113 118.573 23.2783L119.588 23.6579C119.437 23.9881 119.228 24.2882 118.967 24.5591C118.704 24.831 118.38 25.0466 118.001 25.2068C117.617 25.368 117.167 25.4466 116.646 25.4466Z" fill="white"/>
<path d="M122.391 25.2965V16.4171H123.497V20.7665L126.959 16.4171H128.201L125.753 19.4857L128.926 25.2955H127.643L125.006 20.4121L123.497 22.2639V25.2955H122.391V25.2965Z" fill="white"/>
<path d="M134.823 25.4466C134.126 25.4466 133.537 25.3136 133.053 25.0456C132.572 24.7756 132.185 24.4193 131.895 23.9735C131.602 23.5268 131.39 23.0326 131.257 22.4927C131.124 21.9508 131.058 21.406 131.058 20.8545C131.058 20.3058 131.124 19.7591 131.257 19.2182C131.391 18.6774 131.602 18.1841 131.895 17.7374C132.186 17.2917 132.572 16.9353 133.053 16.6653C133.537 16.3983 134.126 16.2623 134.823 16.2623C135.526 16.2623 136.118 16.3983 136.599 16.6653C137.082 16.9343 137.47 17.2917 137.761 17.7374C138.051 18.1841 138.264 18.6783 138.393 19.2182C138.525 19.7591 138.59 20.3049 138.59 20.8545C138.59 21.4051 138.525 21.9508 138.393 22.4927C138.263 23.0335 138.05 23.5268 137.761 23.9735C137.469 24.4193 137.082 24.7747 136.599 25.0456C136.118 25.3146 135.525 25.4466 134.823 25.4466ZM134.823 24.4076C135.314 24.4076 135.726 24.2998 136.061 24.0842C136.395 23.8687 136.664 23.5841 136.868 23.2316C137.073 22.8782 137.221 22.4936 137.313 22.0771C137.404 21.6605 137.449 21.2526 137.449 20.8555C137.449 20.4204 137.404 19.9922 137.313 19.5717C137.221 19.1512 137.073 18.7696 136.868 18.4249C136.664 18.0792 136.396 17.8044 136.061 17.5985C135.726 17.3936 135.313 17.2926 134.823 17.2926C134.336 17.2926 133.927 17.4004 133.592 17.615C133.258 17.8316 132.989 18.1151 132.784 18.4676C132.58 18.8201 132.43 19.2066 132.337 19.6251C132.243 20.0436 132.196 20.4544 132.196 20.8555C132.196 21.2905 132.243 21.7197 132.337 22.1402C132.43 22.5606 132.58 22.9423 132.784 23.2851C132.989 23.6288 133.258 23.9007 133.592 24.1046C133.927 24.3056 134.336 24.4076 134.823 24.4076Z" fill="white"/>
<path d="M141.591 25.2965V16.4171H142.681V22.5931C142.681 22.6989 142.678 22.829 142.672 22.9834C142.666 23.1369 142.657 23.2786 142.644 23.4039C142.703 23.2825 142.768 23.1543 142.838 23.0213C142.907 22.8873 142.97 22.7747 143.024 22.6814L146.932 16.4162H148.071V25.2955H146.969V19.2701C146.969 19.0574 146.972 18.8788 146.979 18.7312C146.985 18.5826 146.994 18.4593 147.006 18.3563C146.951 18.4612 146.875 18.5962 146.779 18.7584C146.68 18.9215 146.601 19.0545 146.537 19.1545L142.668 25.2946H141.591V25.2965ZM144.8 15.5548C144.244 15.5548 143.778 15.4606 143.407 15.2713C143.037 15.0839 142.76 14.8343 142.577 14.5206C142.393 14.2089 142.302 13.8632 142.302 13.4874H143.291C143.291 13.7205 143.358 13.9225 143.491 14.0924C143.624 14.2633 143.805 14.3963 144.034 14.4886C144.261 14.5828 144.518 14.6284 144.801 14.6284C145.084 14.6284 145.341 14.5828 145.571 14.4886C145.802 14.3963 145.985 14.2633 146.12 14.0924C146.255 13.9225 146.325 13.7205 146.325 13.4874H147.312C147.312 13.8642 147.218 14.2089 147.033 14.5206C146.847 14.8343 146.568 15.0839 146.197 15.2713C145.823 15.4606 145.357 15.5548 144.8 15.5548Z" fill="white"/>
<path d="M67.4355 40.5177L70.3526 34.4175L71.0887 35.2905L68.6018 40.5177H67.4355ZM72.7754 38.4367L67.69 31.6383H68.9825L72.7754 36.7752V38.4367ZM72.321 40.5177V31.6383H73.4231V40.5177H72.321ZM72.9657 38.4367V36.7752L76.7597 31.6383H78.0522L72.9657 38.4367ZM77.1394 40.5177L74.6525 35.2905L75.3885 34.4175L78.3066 40.5177H77.1394Z" fill="white"/>
<path d="M81.0518 40.5177V31.6383H82.1432V37.8152C82.1432 37.9211 82.1403 38.0493 82.1345 38.2046C82.1277 38.3581 82.119 38.5008 82.1054 38.6261C82.1646 38.5047 82.2297 38.3765 82.2986 38.2435C82.3675 38.1095 82.4307 37.9978 82.485 37.9026L86.3916 31.6373H87.5346V40.5167H86.4305V34.4923C86.4305 34.2796 86.4334 34.1009 86.4392 33.9523C86.446 33.8038 86.4547 33.6804 86.4674 33.5765C86.411 33.6814 86.3353 33.8193 86.2401 33.9815C86.1421 34.1436 86.0624 34.2747 85.9974 34.3777L82.1296 40.5158H81.0518V40.5177Z" fill="white"/>
<path d="M90.9209 40.5177V31.6383H94.0681C94.7692 31.6383 95.3208 31.7509 95.7218 31.9772C96.1239 32.2035 96.4093 32.4967 96.5793 32.856C96.7473 33.2153 96.8327 33.5911 96.8327 33.9854C96.8327 34.3903 96.7191 34.7564 96.489 35.0807C96.2608 35.408 95.9394 35.6585 95.5257 35.8372C95.8685 35.9421 96.1617 36.0974 96.4035 36.3023C96.6482 36.5082 96.8318 36.7519 96.958 37.0345C97.0852 37.318 97.1483 37.6288 97.1483 37.9667C97.1483 38.2677 97.1007 38.5668 97.0027 38.8679C96.9046 39.1689 96.7453 39.4437 96.5249 39.6933C96.3016 39.9428 96.0064 40.1419 95.6374 40.2924C95.2664 40.441 94.811 40.5167 94.2701 40.5167H90.9209V40.5177ZM92.026 35.4041H93.8525C94.4808 35.4041 94.9547 35.2769 95.2693 35.0186C95.5859 34.7612 95.7413 34.4204 95.7413 33.997C95.7413 33.7814 95.6995 33.5697 95.6179 33.361C95.5364 33.1512 95.3771 32.9784 95.145 32.8444C94.9129 32.7084 94.576 32.6414 94.1303 32.6414H92.026V35.4041ZM92.026 39.5029H94.3963C94.8323 39.5029 95.1703 39.4311 95.4111 39.2864C95.6529 39.1427 95.8199 38.9591 95.9151 38.7348C96.0112 38.5125 96.0588 38.2813 96.0588 38.0444C96.0588 37.7618 96.0015 37.4948 95.8859 37.2452C95.7733 36.9957 95.5665 36.7946 95.2683 36.6383C94.9702 36.4849 94.5439 36.4082 93.9914 36.4082H92.026V39.5029Z" fill="white"/>
<path d="M103.549 40.6693C102.851 40.6693 102.261 40.5353 101.781 40.2673C101.298 39.9993 100.911 39.6409 100.62 39.1952C100.327 38.7476 100.116 38.2562 99.9823 37.7134C99.8492 37.1725 99.7832 36.6277 99.7832 36.0771C99.7832 35.5285 99.8492 34.9828 99.9823 34.4409C100.117 33.899 100.327 33.4077 100.62 32.961C100.912 32.5133 101.298 32.157 101.781 31.8889C102.261 31.62 102.852 31.485 103.549 31.485C104.252 31.485 104.843 31.62 105.326 31.8889C105.807 32.156 106.195 32.5133 106.486 32.961C106.777 33.4077 106.989 33.9 107.121 34.4409C107.251 34.9828 107.317 35.5275 107.317 36.0771C107.317 36.6268 107.251 37.1725 107.121 37.7134C106.988 38.2572 106.777 38.7476 106.486 39.1952C106.194 39.6409 105.807 39.9983 105.326 40.2673C104.843 40.5363 104.251 40.6693 103.549 40.6693ZM103.549 39.6303C104.04 39.6303 104.452 39.5225 104.786 39.3069C105.12 39.0913 105.388 38.8068 105.595 38.4533C105.799 38.0999 105.948 37.7144 106.039 37.2997C106.129 36.8821 106.176 36.4753 106.176 36.0781C106.176 35.6421 106.129 35.2139 106.039 34.7953C105.948 34.3739 105.799 33.9913 105.595 33.6446C105.388 33.3009 105.12 33.0261 104.786 32.8221C104.451 32.6163 104.039 32.5143 103.549 32.5143C103.063 32.5143 102.653 32.6211 102.319 32.8367C101.985 33.0532 101.716 33.3378 101.51 33.6893C101.305 34.0428 101.156 34.4292 101.062 34.8468C100.971 35.2653 100.923 35.6761 100.923 36.0781C100.923 36.5141 100.971 36.9424 101.062 37.3628C101.156 37.7833 101.305 38.1649 101.51 38.5077C101.716 38.8515 101.985 39.1224 102.319 39.3263C102.653 39.5273 103.063 39.6303 103.549 39.6303Z" fill="white"/>
<path d="M110.316 40.5177V31.6383H116.582V40.5177H115.491V32.7036H111.421V40.5177H110.316Z" fill="white"/>
<path d="M119.969 40.5177V31.6383H121.059V37.8152C121.059 37.9211 121.057 38.0493 121.051 38.2046C121.045 38.3581 121.035 38.5008 121.023 38.6261C121.082 38.5047 121.146 38.3765 121.216 38.2435C121.285 38.1095 121.348 37.9978 121.403 37.9026L125.309 31.6373H126.452V40.5167H125.347V34.4923C125.347 34.2796 125.349 34.1009 125.357 33.9523C125.364 33.8038 125.374 33.6804 125.386 33.5765C125.329 33.6814 125.253 33.8193 125.156 33.9815C125.06 34.1436 124.979 34.2747 124.916 34.3777L121.049 40.5158H119.969V40.5177Z" fill="white"/>
<path d="M133.137 40.6693C132.466 40.6693 131.895 40.5372 131.425 40.277C130.956 40.0148 130.578 39.6623 130.289 39.2195C130.003 38.7806 129.791 38.2853 129.659 37.7406C129.525 37.1939 129.459 36.6404 129.459 36.0781C129.459 35.5207 129.527 34.9682 129.665 34.4273C129.804 33.8825 130.016 33.3892 130.31 32.9445C130.6 32.5036 130.981 32.1482 131.449 31.8831C131.915 31.62 132.478 31.4869 133.137 31.4869C133.683 31.4869 134.145 31.5656 134.524 31.721C134.903 31.8783 135.211 32.0783 135.449 32.3211C135.688 32.5638 135.875 32.8202 136.004 33.0843L135.014 33.5912C134.875 33.3854 134.723 33.1999 134.558 33.0368C134.394 32.8736 134.196 32.7454 133.969 32.6532C133.74 32.56 133.463 32.5134 133.137 32.5134C132.663 32.5134 132.264 32.6202 131.94 32.8357C131.614 33.0523 131.354 33.3368 131.155 33.6854C130.959 34.0369 130.817 34.4215 130.73 34.842C130.642 35.2595 130.599 35.6703 130.599 36.0762C130.599 36.5161 130.649 36.9463 130.746 37.3716C130.845 37.794 130.995 38.1746 131.202 38.5145C131.411 38.8573 131.672 39.1263 131.992 39.3263C132.311 39.5273 132.693 39.6293 133.136 39.6293C133.628 39.6293 134.02 39.5244 134.317 39.3166C134.612 39.1059 134.864 38.835 135.066 38.5009L136.081 38.8816C135.929 39.2098 135.72 39.5108 135.459 39.7827C135.196 40.0517 134.874 40.2673 134.492 40.4285C134.108 40.5887 133.658 40.6693 133.137 40.6693Z" fill="white"/>
<path d="M138.883 40.5177V31.6383H139.973V37.8152C139.973 37.9211 139.97 38.0493 139.964 38.2046C139.958 38.3581 139.947 38.5008 139.936 38.6261C139.996 38.5047 140.059 38.3765 140.13 38.2435C140.199 38.1095 140.261 37.9978 140.317 37.9026L144.222 31.6373H145.364V40.5167H144.26V34.4923C144.26 34.2796 144.262 34.1009 144.269 33.9523C144.275 33.8038 144.287 33.6804 144.299 33.5765C144.243 33.6814 144.166 33.8193 144.07 33.9815C143.974 34.1436 143.894 34.2747 143.829 34.3777L139.961 40.5158H138.883V40.5177Z" fill="white"/>
<path d="M68.1074 55.7413V46.861H73.423V47.899H69.2125V55.7404H68.1074V55.7413Z" fill="white"/>
<path d="M76.7079 55.8914L76.137 54.9659C76.5341 54.9329 76.8575 54.8902 77.109 54.8416C77.3576 54.7931 77.5615 54.7183 77.7247 54.6173C77.8839 54.5154 78.0276 54.3697 78.1548 54.1803C78.2811 53.989 78.417 53.7405 78.5598 53.4317L75.4902 46.8615H76.7342L78.9278 51.7566C78.9657 51.8372 78.9977 51.9139 79.0259 51.9887C79.055 52.0615 79.0841 52.1411 79.1133 52.2266C79.1424 52.1411 79.1735 52.0615 79.2055 51.9887C79.2366 51.9139 79.2735 51.8313 79.3153 51.7381L81.5283 46.8615H82.7596L79.5629 53.6968C79.3696 54.1075 79.1822 54.4464 79.0055 54.7164C78.8268 54.9834 78.6374 55.198 78.4306 55.3563C78.2257 55.5146 77.9849 55.634 77.7081 55.7146C77.4304 55.7933 77.0983 55.8545 76.7079 55.8914Z" fill="white"/>
<path d="M85.4531 55.7413V46.861H86.5572V50.6141H90.7444V46.861H91.8466V55.7413H90.7444V51.6561H86.5572V55.7413H85.4531Z" fill="white"/>
<path d="M95.2344 55.7408V46.8605H96.3394V50.6136H98.5719C99.1118 50.6136 99.5711 50.6913 99.944 50.8457C100.318 51.0001 100.619 51.2031 100.848 51.4575C101.077 51.7119 101.243 51.9877 101.346 52.2887C101.449 52.5878 101.503 52.884 101.503 53.1772C101.503 53.4637 101.449 53.7579 101.346 54.058C101.244 54.358 101.077 54.6358 100.848 54.8873C100.62 55.1407 100.318 55.3476 99.944 55.5029C99.5711 55.6593 99.1118 55.7389 98.5719 55.7389H95.2344V55.7408ZM95.4898 47.8995V46.8614H100.614V47.8995H95.4898ZM96.3394 54.7115H98.6719C99.1293 54.7115 99.4828 54.6367 99.7314 54.4833C99.9809 54.3318 100.156 54.1396 100.251 53.9036C100.348 53.6696 100.397 53.4258 100.397 53.1782C100.397 52.9325 100.347 52.6936 100.251 52.4606C100.155 52.2285 99.9809 52.0353 99.7314 51.8838C99.4828 51.7313 99.1293 51.6556 98.6719 51.6556H96.3394V54.7115Z" fill="white"/>
<path d="M104.424 55.7413V46.861H105.515V53.0379C105.515 53.1418 105.512 53.2729 105.505 53.4273C105.499 53.5807 105.488 53.7235 105.476 53.8487C105.536 53.7273 105.601 53.5982 105.67 53.4642C105.739 53.3321 105.801 53.2195 105.856 53.1243L109.764 46.86H110.905V55.7404H109.802V49.7149C109.802 49.5022 109.804 49.3245 109.811 49.175C109.816 49.0274 109.827 48.9041 109.839 48.8002C109.784 48.906 109.707 49.041 109.61 49.2041C109.513 49.3663 109.434 49.4984 109.37 49.6003L105.502 55.7404H104.424V55.7413Z" fill="white"/>
<path d="M22.9608 42.362C22.7986 42.863 22.6384 43.3787 22.4762 43.9098C22.3014 43.3524 22.1305 42.8329 21.9654 42.3522L7.89182 0.297485H0L19.2979 56.7026H25.4331L44.6922 0.297485H36.7965L22.9608 42.362Z" fill="white"/>
<path d="M56.8322 0.297485H49.4443V56.7026H56.8322V0.297485Z" fill="white"/>
</svg>
