<svg width="111" height="45" viewBox="0 0 111 45" fill="none" xmlns="http://www.w3.org/2000/svg">
<g clip-path="url(#clip0_3_3401)">
<path d="M110.346 0.118652H57.4922V9.58303H110.346V0.118652Z" fill="white"/>
<path d="M110.346 18.9806H57.4922V28.1738H110.346V18.9806Z" fill="#D32E27"/>
<path d="M110.346 9.58643H57.4922V18.9807H110.346V9.58643Z" fill="#1E439B"/>
<path d="M57.4556 0.119141H1.77246V28.171H57.4556V0.119141Z" fill="#DD2E26"/>
<path d="M9.13133 2.76367L10.1492 5.759H13.4482L10.7823 7.60861L11.8002 10.6009L9.13133 8.75128L6.46547 10.6009L7.48334 7.60861L4.81445 5.759H8.11345L9.13133 2.76367Z" fill="#FDDD00"/>
<path d="M17.068 1.62415L16.965 2.6236L17.9253 3.02582L16.8984 3.23912L16.7954 4.24468L16.2622 3.3732L15.2383 3.58954L15.9381 2.83995L15.4049 1.97152L16.3682 2.37374L17.068 1.62415Z" fill="#FDDD00"/>
<path d="M20.4846 4.75971L19.9938 5.64643L20.73 6.36555L19.6909 6.19491L19.2031 7.08467L19.0486 6.09131L18.0156 5.92067L18.9578 5.47883L18.8063 4.48242L19.5394 5.20154L20.4846 4.75971Z" fill="#FDDD00"/>
<path d="M19.4125 8.55957L19.77 9.50418L20.8242 9.47066L19.9911 10.0923L20.3486 11.0399L19.4761 10.4762L18.6461 11.0948L18.9369 10.1227L18.0645 9.55903L19.1187 9.52551L19.4125 8.55957Z" fill="#FDDD00"/>
<path d="M17.0106 11.439L16.953 12.4476L17.9375 12.8071L16.9166 13.0692L16.8621 14.0747L16.2865 13.2276L15.2656 13.4866L15.9321 12.7066L15.3595 11.8595L16.3441 12.2221L17.0106 11.439Z" fill="#FDDD00"/>
<path d="M1.67548 34.1154C1.67548 34.5786 1.7815 34.9381 1.99659 35.1758C2.20865 35.4196 2.48129 35.5384 2.81452 35.5384C3.1417 35.5384 3.41131 35.4196 3.6264 35.1819C3.83846 34.9412 3.94146 34.5816 3.94146 34.1032C3.94146 33.6309 3.83846 33.2775 3.63246 33.0428C3.42646 32.8112 3.15382 32.6954 2.8115 32.6954C2.46917 32.6954 2.1935 32.8143 1.9875 33.0489C1.77848 33.2866 1.67548 33.6401 1.67548 34.1154ZM0.824219 34.1459C0.824219 33.7223 0.887836 33.3689 1.01204 33.0855C1.10292 32.8752 1.23016 32.6863 1.39374 32.5187C1.5543 32.3481 1.73 32.2262 1.92389 32.147C2.17835 32.0373 2.47523 31.9824 2.80544 31.9824C3.40828 31.9824 3.89299 32.1713 4.25651 32.5492C4.61701 32.927 4.79877 33.4511 4.79877 34.1215C4.79877 34.7888 4.62004 35.3099 4.25954 35.6877C3.90207 36.0625 3.4204 36.2514 2.81452 36.2514C2.20562 36.2514 1.72395 36.0625 1.36345 35.6877C0.999923 35.316 0.824219 34.801 0.824219 34.1459Z" fill="black"/>
<path d="M6.28904 35.4866H7.09182C7.34932 35.4866 7.53108 35.4714 7.63711 35.447C7.74011 35.4226 7.83099 35.3647 7.90976 35.2733C7.98852 35.1819 8.02487 35.0722 8.02487 34.9412C8.02487 34.7492 7.95823 34.6151 7.8219 34.5237C7.68861 34.4384 7.45838 34.3927 7.1312 34.3927H6.28904V35.4866ZM5.45898 32.0586H8.52472V32.7503H6.28904V33.7071H7.39173C7.70073 33.7071 7.9552 33.7437 8.15514 33.8168C8.35508 33.893 8.52775 34.0331 8.67013 34.2373C8.81251 34.4414 8.88219 34.6791 8.88219 34.9442C8.88219 35.2246 8.81251 35.4622 8.6671 35.6633C8.52472 35.8584 8.36113 35.9955 8.17937 36.0717C7.99155 36.1417 7.73405 36.1814 7.39173 36.1814H5.45898V32.0586Z" fill="black"/>
<path d="M9.57324 32.0591H10.4003V35.4871H11.5878V32.0591H12.4118V35.4871H13.6356V32.0591H14.4627V35.4871H14.8292V37.0808H14.1416V36.1818H9.57324V32.0591Z" fill="black"/>
<path d="M15.3926 36.1814V32.0586H18.4341V32.7533H16.2226V33.6675H18.2796V34.3622H16.2226V35.4866H18.5128V36.1814H15.3926Z" fill="black"/>
<path d="M21.8361 34.6639L22.6389 34.9199C22.5147 35.3678 22.3148 35.706 22.027 35.9224C21.7392 36.1387 21.3757 36.2484 20.9394 36.2484C20.3942 36.2484 19.9458 36.0595 19.5974 35.6847C19.249 35.3129 19.0703 34.801 19.0703 34.152C19.0703 33.4633 19.249 32.9331 19.6005 32.5522C19.9519 32.1744 20.4184 31.9824 20.9909 31.9824C21.4908 31.9824 21.8998 32.1317 22.2118 32.4273C22.3996 32.604 22.5359 32.8569 22.6298 33.1891L21.8089 33.3841C21.7604 33.1708 21.6604 33.0002 21.5059 32.8752C21.3514 32.7533 21.1666 32.6894 20.9455 32.6894C20.6395 32.6894 20.3942 32.7991 20.2033 33.0184C20.0155 33.2348 19.9185 33.5913 19.9185 34.0849C19.9185 34.606 20.0125 34.9777 20.2003 35.1971C20.3881 35.4196 20.6304 35.5293 20.9273 35.5293C21.1454 35.5293 21.3363 35.4592 21.4968 35.319C21.6544 35.188 21.7695 34.9686 21.8361 34.6639Z" fill="black"/>
<path d="M24.1288 36.1814V32.7533H22.9141V32.0586H26.1707V32.7533H24.9589V36.1814H24.1288Z" fill="black"/>
<path d="M27.535 34.3836V35.4836H28.3015C28.6014 35.4836 28.7892 35.4744 28.871 35.4592C28.9952 35.4348 29.0921 35.383 29.1709 35.2916C29.2497 35.2063 29.289 35.0905 29.289 34.9412C29.289 34.8193 29.2588 34.7157 29.1982 34.6273C29.1376 34.542 29.0558 34.475 28.9407 34.4384C28.8286 34.3957 28.5832 34.3775 28.2076 34.3775H27.535V34.3836ZM27.535 32.7412V33.6949H28.0773C28.4014 33.6949 28.6014 33.6888 28.6801 33.6797C28.8225 33.6614 28.9316 33.6157 29.0103 33.5304C29.0921 33.4511 29.1345 33.3414 29.1345 33.2104C29.1345 33.0824 29.0982 32.9819 29.0285 32.8996C28.9619 32.8204 28.8528 32.7716 28.7165 32.7533C28.6347 32.7442 28.4014 32.7381 28.0106 32.7381H27.535V32.7412ZM26.708 32.0586H28.3469C28.6711 32.0586 28.9134 32.0708 29.0709 32.0982C29.2315 32.1287 29.3739 32.1835 29.5011 32.2719C29.6253 32.3572 29.7313 32.47 29.8162 32.6132C29.898 32.7594 29.9404 32.9209 29.9404 33.0946C29.9404 33.2866 29.8858 33.4664 29.7859 33.6279C29.6798 33.7894 29.5405 33.9113 29.3617 33.9935C29.6102 34.0636 29.804 34.1885 29.9373 34.3622C30.0706 34.542 30.1373 34.7492 30.1373 34.9869C30.1373 35.1758 30.0918 35.3556 30.007 35.5354C29.9192 35.7121 29.804 35.8523 29.6526 35.9589C29.5011 36.0656 29.3193 36.1326 29.0982 36.1539C28.9588 36.1692 28.6256 36.1783 28.0985 36.1844H26.708V32.0586Z" fill="black"/>
<path d="M31.3847 34.1154C31.3847 34.5786 31.4907 34.9381 31.7027 35.1758C31.9178 35.4196 32.1905 35.5384 32.5207 35.5384C32.8509 35.5384 33.1205 35.4196 33.3356 35.1819C33.5446 34.9412 33.6506 34.5816 33.6506 34.1032C33.6506 33.6309 33.5476 33.2775 33.3386 33.0428C33.1356 32.8112 32.863 32.6954 32.5177 32.6954C32.1784 32.6954 31.9027 32.8143 31.6967 33.0489C31.4877 33.2866 31.3847 33.6401 31.3847 34.1154ZM30.5273 34.1459C30.5273 33.7223 30.591 33.3689 30.7182 33.0855C30.8091 32.8752 30.9363 32.6863 31.0969 32.5187C31.2605 32.3481 31.4362 32.2262 31.627 32.147C31.8845 32.0373 32.1814 31.9824 32.5116 31.9824C33.1144 31.9824 33.5991 32.1713 33.9627 32.5492C34.3262 32.927 34.508 33.4511 34.508 34.1215C34.508 34.7888 34.3292 35.3099 33.9687 35.6877C33.6082 36.0625 33.1296 36.2514 32.5237 36.2514C31.9148 36.2514 31.4301 36.0625 31.0726 35.6877C30.7091 35.316 30.5273 34.801 30.5273 34.1459Z" fill="black"/>
<path d="M37.5713 32.7535V33.9266H38.0226C38.3498 33.9266 38.5679 33.9022 38.677 33.8626C38.7891 33.8169 38.8709 33.7499 38.9375 33.6585C39.0011 33.5701 39.0284 33.4634 39.0284 33.3416C39.0284 33.1892 38.983 33.0673 38.8981 32.9698C38.8103 32.8723 38.7012 32.8114 38.5679 32.7839C38.468 32.7656 38.268 32.7565 37.9711 32.7565H37.5713V32.7535ZM36.7412 36.1815V32.0557H38.0681C38.571 32.0557 38.8981 32.0739 39.0526 32.1197C39.2859 32.1806 39.4858 32.3116 39.6403 32.5219C39.8009 32.7291 39.8797 32.9972 39.8797 33.3263C39.8797 33.5792 39.8312 33.7925 39.7403 33.9662C39.6525 34.1369 39.5343 34.274 39.395 34.3745C39.2526 34.469 39.1102 34.536 38.9618 34.5665C38.7679 34.6061 38.4801 34.6274 38.1044 34.6274H37.5652V36.1845H36.7412V36.1815Z" fill="black"/>
<path d="M41.1696 34.1154C41.1696 34.5786 41.2787 34.9381 41.4907 35.1758C41.7058 35.4196 41.9785 35.5384 42.3087 35.5384C42.6389 35.5384 42.9085 35.4196 43.1236 35.1819C43.3326 34.9412 43.4386 34.5816 43.4386 34.1032C43.4386 33.6309 43.3356 33.2775 43.1296 33.0428C42.9236 32.8112 42.648 32.6954 42.3087 32.6954C41.9694 32.6954 41.6937 32.8143 41.4847 33.0489C41.2756 33.2835 41.1696 33.6401 41.1696 34.1154ZM40.3184 34.1459C40.3184 33.7223 40.382 33.3689 40.5062 33.0855C40.6001 32.8752 40.7273 32.6863 40.8879 32.5187C41.0515 32.3481 41.2272 32.2262 41.4211 32.147C41.6755 32.0373 41.9724 31.9824 42.3026 31.9824C42.9055 31.9824 43.3902 32.1713 43.7537 32.5492C44.1172 32.927 44.299 33.4511 44.299 34.1215C44.299 34.7888 44.1172 35.3099 43.7597 35.6877C43.3992 36.0625 42.9176 36.2514 42.3147 36.2514C41.7058 36.2514 41.2211 36.0625 40.8636 35.6877C40.4971 35.316 40.3184 34.801 40.3184 34.1459Z" fill="black"/>
<path d="M47.5627 34.6639L48.3655 34.9199C48.2443 35.3678 48.0413 35.706 47.7536 35.9224C47.4658 36.1387 47.1022 36.2484 46.666 36.2484C46.1177 36.2484 45.6724 36.0595 45.324 35.6847C44.9756 35.3129 44.7969 34.801 44.7969 34.152C44.7969 33.4633 44.9756 32.9331 45.327 32.5522C45.6784 32.1744 46.145 31.9824 46.7175 31.9824C47.2174 31.9824 47.6233 32.1317 47.9383 32.4273C48.1231 32.604 48.2625 32.8569 48.3564 33.1891L47.5385 33.3841C47.487 33.1708 47.387 33.0002 47.2325 32.8752C47.078 32.7533 46.8932 32.6894 46.6721 32.6894C46.3661 32.6894 46.1207 32.7991 45.9299 33.0184C45.739 33.2348 45.6481 33.5913 45.6481 34.0849C45.6481 34.606 45.739 34.9777 45.9268 35.1971C46.1147 35.4196 46.357 35.5293 46.6539 35.5293C46.872 35.5293 47.0629 35.4592 47.2234 35.319C47.3809 35.188 47.4961 34.9686 47.5627 34.6639Z" fill="black"/>
<path d="M51.7004 34.6639L52.5032 34.9199C52.382 35.3678 52.176 35.706 51.8882 35.9224C51.6035 36.1387 51.2399 36.2484 50.8007 36.2484C50.2554 36.2484 49.8101 36.0595 49.4617 35.6847C49.1103 35.3129 48.9346 34.801 48.9346 34.152C48.9346 33.4633 49.1133 32.9331 49.4647 32.5522C49.8161 32.1744 50.2826 31.9824 50.8522 31.9824C51.355 31.9824 51.761 32.1317 52.076 32.4273C52.2608 32.604 52.4002 32.8569 52.4941 33.1891L51.6731 33.3841C51.6247 33.1708 51.5247 33.0002 51.3702 32.8752C51.2157 32.7533 51.0309 32.6894 50.8067 32.6894C50.5038 32.6894 50.2554 32.7991 50.0676 33.0184C49.8767 33.2348 49.7828 33.5913 49.7828 34.0849C49.7828 34.606 49.8767 34.9777 50.0645 35.1971C50.2523 35.4196 50.4947 35.5293 50.7916 35.5293C51.0097 35.5293 51.2005 35.4592 51.3611 35.319C51.5156 35.188 51.6307 34.9686 51.7004 34.6639Z" fill="black"/>
<path d="M53.2236 32.0586H53.9992V34.801L55.6562 32.0586H56.4832V36.1814H55.7077V33.4877L54.0507 36.1814H53.2236V32.0586Z" fill="black"/>
<path d="M59.4615 31.0322H59.8462C59.822 31.2882 59.7341 31.4862 59.5796 31.6295C59.4221 31.7757 59.2222 31.8489 58.9738 31.8489C58.7254 31.8489 58.5254 31.7757 58.3679 31.6295C58.2134 31.4862 58.1255 31.2882 58.1013 31.0322H58.486C58.4981 31.1633 58.5466 31.2638 58.6254 31.3339C58.7041 31.404 58.8193 31.4375 58.9738 31.4375C59.1252 31.4375 59.2434 31.4009 59.3221 31.3339C59.4009 31.2669 59.4494 31.1633 59.4615 31.0322ZM57.3379 32.0591H58.1134V34.8015L59.7735 32.0591H60.5975V36.1849H59.822V33.4882L58.1649 36.1819H57.3379V32.0591Z" fill="black"/>
<path d="M64.0666 34.6644L64.8694 34.9203C64.7482 35.3683 64.5422 35.7065 64.2575 35.9228C63.9697 36.1392 63.6061 36.2489 63.1699 36.2489C62.6246 36.2489 62.1763 36.06 61.8279 35.6852C61.4795 35.3134 61.3008 34.8015 61.3008 34.1525C61.3008 33.4638 61.4795 32.9336 61.8309 32.5527C62.1823 32.1749 62.6489 31.9829 63.2214 31.9829C63.7213 31.9829 64.1302 32.1322 64.4423 32.4278C64.6301 32.6045 64.7664 32.8574 64.8603 33.1896L64.0393 33.3846C63.9909 33.1713 63.8909 33.0006 63.7364 32.8757C63.5819 32.7538 63.3971 32.6898 63.176 32.6898C62.87 32.6898 62.6246 32.7995 62.4338 33.0189C62.246 33.2353 62.152 33.5918 62.152 34.0854C62.152 34.6065 62.2429 34.9782 62.4307 35.1976C62.6186 35.4201 62.8609 35.5298 63.1578 35.5298C63.3759 35.5298 63.5668 35.4597 63.7273 35.3195C63.8818 35.1885 63.9969 34.9691 64.0666 34.6644Z" fill="black"/>
<path d="M65.5929 32.0593H66.4199V33.8114C66.6047 33.7931 66.7289 33.7474 66.7925 33.6682C66.8592 33.592 66.9591 33.3787 67.0954 33.0283C67.2681 32.5834 67.4408 32.3031 67.6135 32.1964C67.7861 32.0898 68.0618 32.0319 68.4435 32.0319C68.4617 32.0319 68.5041 32.0319 68.5647 32.0288V32.6443L68.4466 32.6413C68.2769 32.6413 68.1527 32.6626 68.0739 32.7053C67.9982 32.751 67.9316 32.8119 67.8831 32.8972C67.8346 32.9826 67.7619 33.1623 67.668 33.4305C67.6165 33.5737 67.565 33.6925 67.5044 33.787C67.4438 33.8845 67.3408 33.9759 67.1924 34.0582C67.3772 34.113 67.5256 34.2166 67.6468 34.3751C67.768 34.5366 67.8982 34.7621 68.0436 35.0546L68.6041 36.1851H67.6316L67.1439 35.1186C67.1348 35.1003 67.1197 35.0698 67.0924 35.0302C67.0864 35.015 67.05 34.9541 66.9894 34.8352C66.8834 34.6372 66.7986 34.5092 66.7289 34.4604C66.6622 34.4056 66.5562 34.3842 66.4169 34.3781V36.1881H65.5898V32.0593H65.5929Z" fill="black"/>
<path d="M69.7586 34.1159C69.7586 34.5791 69.8676 34.9386 70.0797 35.1763C70.2918 35.4201 70.5644 35.5389 70.8976 35.5389C71.2248 35.5389 71.4975 35.4201 71.7125 35.1824C71.9216 34.9417 72.0276 34.5821 72.0276 34.1037C72.0276 33.6314 71.9246 33.2779 71.7156 33.0433C71.5126 32.8117 71.2369 32.6959 70.8946 32.6959C70.5523 32.6959 70.2796 32.8148 70.0706 33.0494C69.8616 33.284 69.7586 33.6405 69.7586 34.1159ZM68.9043 34.1464C68.9043 33.7228 68.9679 33.3694 69.0921 33.086C69.186 32.8757 69.3133 32.6868 69.4738 32.5192C69.6374 32.3486 69.8131 32.2267 70.004 32.1475C70.2615 32.0378 70.5553 31.9829 70.8885 31.9829C71.4914 31.9829 71.9761 32.1718 72.3396 32.5497C72.7032 32.9275 72.8849 33.4516 72.8849 34.122C72.8849 34.7893 72.7031 35.3104 72.3457 35.6882C71.9852 36.063 71.5035 36.2519 70.9007 36.2519C70.2918 36.2519 69.8071 36.063 69.4466 35.6882C69.0861 35.3165 68.9043 34.8015 68.9043 34.1464Z" fill="black"/>
<path d="M74.9776 34.2891H73.4326V35.0813H74.9776V34.2891Z" fill="black"/>
<path d="M75.4502 32.0588H76.2742V33.8109C76.459 33.7926 76.5862 33.7469 76.6498 33.6677C76.7134 33.5885 76.8164 33.3782 76.9528 33.0278C77.1254 32.5829 77.2951 32.3026 77.4708 32.1959C77.6435 32.0893 77.9191 32.0314 78.3008 32.0314C78.319 32.0314 78.3584 32.0314 78.419 32.0283V32.6438L78.3008 32.6408C78.1312 32.6408 78.007 32.6621 77.9313 32.7048C77.8525 32.7505 77.7889 32.8114 77.7404 32.8968C77.6919 32.9821 77.6223 33.1619 77.5284 33.43C77.4769 33.5732 77.4223 33.6921 77.3617 33.7865C77.3042 33.884 77.2012 33.9754 77.0497 34.0577C77.2345 34.1126 77.386 34.2162 77.5072 34.3746C77.6253 34.5361 77.7586 34.7616 77.901 35.0541L78.4614 36.1846H77.489L77.0012 35.1181C76.9952 35.0998 76.977 35.0694 76.9528 35.0297C76.9437 35.0145 76.9073 34.9536 76.8498 34.8347C76.7437 34.6367 76.6589 34.5087 76.5892 34.4599C76.5226 34.4051 76.4135 34.3838 76.2742 34.3777V36.1877H75.4502V32.0588Z" fill="black"/>
<path d="M78.9404 32.0586H79.716V34.801L81.3761 32.0586H82.2001V36.1814H81.4245V33.4877L79.7675 36.1814H78.9404V32.0586Z" fill="black"/>
<path d="M83.9658 36.1814V32.7533H82.751V32.0586H86.0076V32.7533H84.7958V36.1814H83.9658Z" fill="black"/>
<path d="M88.3527 34.5513L87.7862 33.0186L87.2318 34.5513H88.3527ZM89.8765 36.1815H88.9768L88.6193 35.2399H86.9804L86.6442 36.1815H85.7656L87.3621 32.0557H88.2346L89.8765 36.1815Z" fill="black"/>
<path d="M92.4538 31.0322H92.8355C92.8143 31.2882 92.7234 31.4862 92.5689 31.6295C92.4114 31.7757 92.2114 31.8489 91.963 31.8489C91.7176 31.8489 91.5147 31.7757 91.3602 31.6295C91.2026 31.4862 91.1148 31.2882 91.0906 31.0322H91.4753C91.4874 31.1633 91.5359 31.2638 91.6146 31.3339C91.6934 31.404 91.8085 31.4375 91.963 31.4375C92.1175 31.4375 92.2326 31.4009 92.3114 31.3339C92.3932 31.2638 92.4386 31.1633 92.4538 31.0322ZM90.3271 32.0591H91.1027V34.8015L92.7658 32.0591H93.5868V36.1849H92.8143V33.4882L91.1542 36.1819H90.3271V32.0591Z" fill="black"/>
<path d="M97.0519 34.6644L97.8577 34.9203C97.7335 35.3683 97.5305 35.7065 97.2427 35.9228C96.958 36.1392 96.5944 36.2489 96.1552 36.2489C95.6099 36.2489 95.1646 36.06 94.8131 35.6852C94.4648 35.3134 94.2891 34.8015 94.2891 34.1525C94.2891 33.4638 94.4648 32.9336 94.8162 32.5527C95.1676 32.1749 95.6341 31.9829 96.2067 31.9829C96.7065 31.9829 97.1155 32.1322 97.4275 32.4278C97.6153 32.6045 97.7516 32.8574 97.8486 33.1896L97.0276 33.3846C96.9792 33.1713 96.8762 33.0006 96.7217 32.8757C96.5672 32.7538 96.3824 32.6898 96.1612 32.6898C95.8553 32.6898 95.6099 32.7995 95.4221 33.0189C95.2312 33.2353 95.1373 33.5918 95.1373 34.0854C95.1373 34.6065 95.2312 34.9782 95.419 35.1976C95.6068 35.4201 95.8462 35.5298 96.143 35.5298C96.3612 35.5298 96.552 35.4597 96.7126 35.3195C96.8731 35.1793 96.9852 34.9691 97.0519 34.6644Z" fill="black"/>
<path d="M98.5791 32.0588H99.4061V33.8109C99.5909 33.7926 99.7182 33.7469 99.7818 33.6677C99.8454 33.5885 99.9484 33.3782 100.085 33.0278C100.257 32.5829 100.427 32.3026 100.603 32.1959C100.772 32.0893 101.048 32.0314 101.43 32.0314C101.451 32.0314 101.49 32.0314 101.551 32.0283V32.6438L101.433 32.6408C101.263 32.6408 101.139 32.6621 101.063 32.7048C100.984 32.7505 100.921 32.8114 100.872 32.8968C100.824 32.9821 100.754 33.1619 100.66 33.43C100.606 33.5732 100.554 33.6921 100.494 33.7865C100.436 33.884 100.33 33.9754 100.182 34.0577C100.366 34.1126 100.518 34.2162 100.639 34.3746C100.757 34.5361 100.891 34.7616 101.033 35.0541L101.593 36.1846H100.621L100.133 35.1151C100.124 35.0968 100.109 35.0663 100.085 35.0267C100.076 35.0115 100.039 34.9505 99.9817 34.8317C99.8757 34.6336 99.7909 34.5056 99.7212 34.4569C99.6515 34.402 99.5455 34.3807 99.4061 34.3746V36.1846H98.5791V32.0588Z" fill="black"/>
<path d="M102.748 34.1159C102.748 34.5791 102.854 34.9386 103.066 35.1763C103.281 35.4201 103.554 35.5389 103.884 35.5389C104.214 35.5389 104.484 35.4201 104.699 35.1824C104.908 34.9417 105.014 34.5821 105.014 34.1037C105.014 33.6345 104.911 33.2779 104.705 33.0433C104.499 32.8117 104.226 32.699 103.884 32.699C103.545 32.699 103.269 32.8148 103.063 33.0494C102.851 33.2901 102.748 33.6405 102.748 34.1159ZM101.894 34.1464C101.894 33.7228 101.957 33.3724 102.084 33.086C102.175 32.8788 102.303 32.6868 102.463 32.5192C102.627 32.3516 102.802 32.2267 102.996 32.1475C103.251 32.0378 103.548 31.9829 103.878 31.9829C104.481 31.9829 104.965 32.1749 105.329 32.5497C105.689 32.9275 105.871 33.4516 105.871 34.122C105.871 34.7893 105.692 35.3104 105.332 35.6882C104.971 36.063 104.493 36.2519 103.887 36.2519C103.278 36.2519 102.793 36.063 102.436 35.6882C102.075 35.3165 101.894 34.8015 101.894 34.1464Z" fill="black"/>
<path d="M108.655 31.0322H109.037C109.016 31.2882 108.925 31.4862 108.77 31.6295C108.613 31.7788 108.413 31.8489 108.164 31.8489C107.919 31.8489 107.716 31.7788 107.561 31.6295C107.404 31.4862 107.316 31.2882 107.295 31.0322H107.677C107.689 31.1663 107.737 31.2669 107.816 31.3339C107.895 31.404 108.01 31.4375 108.164 31.4375C108.319 31.4375 108.434 31.404 108.513 31.3339C108.594 31.2669 108.64 31.1663 108.655 31.0322ZM106.525 32.0591H107.301V34.8015L108.961 32.0591H109.785V36.1849H109.013V33.4882L107.352 36.1819H106.525V32.0591Z" fill="black"/>
<path d="M43.7865 40.6703C43.7865 41.9227 43.6744 42.8368 43.4502 43.4067H45.0073V40.6703H43.7865ZM42.9989 39.9786H45.8344V43.4067H46.1949V44.9973H45.5042V44.0953H42.9231V44.9973H42.2324V43.4067H42.5808C42.7504 43.0562 42.8625 42.6449 42.914 42.1817C42.9716 41.7186 42.9928 41.1274 42.9928 40.4144V39.9786H42.9989Z" fill="black"/>
<path d="M47.576 40.6763V41.8464H48.0274C48.3516 41.8464 48.5727 41.8251 48.6818 41.7824C48.7908 41.7398 48.8757 41.6727 48.9393 41.5844C49.0029 41.4899 49.0332 41.3832 49.0332 41.2644C49.0332 41.112 48.9877 40.9902 48.9029 40.8896C48.8151 40.7951 48.703 40.7342 48.5697 40.7068C48.4727 40.6885 48.2728 40.6794 47.9759 40.6794H47.576V40.6763ZM46.749 44.1013V39.9785H48.0759C48.5788 39.9785 48.906 39.9968 49.0604 40.0395C49.2937 40.1034 49.4906 40.2345 49.6481 40.4447C49.8057 40.6519 49.8844 40.9201 49.8844 41.2492C49.8844 41.499 49.839 41.7123 49.7481 41.886C49.6572 42.0597 49.5421 42.1968 49.3997 42.2913C49.2604 42.3918 49.115 42.4589 48.9696 42.4863C48.7727 42.529 48.4879 42.5472 48.1122 42.5472H47.573V44.1043H46.749V44.1013Z" fill="black"/>
<path d="M50.0781 39.9785H51.0051L51.9594 42.1146L52.7773 39.9785H53.6377L52.2563 43.1079C52.1048 43.4461 51.9503 43.7052 51.7958 43.8819C51.6383 44.0617 51.4383 44.15 51.1899 44.15C50.9445 44.15 50.7537 44.1318 50.6174 44.1013V43.4827C50.7355 43.4888 50.8385 43.4949 50.9354 43.4949C51.1263 43.4949 51.2626 43.4583 51.3474 43.3883C51.4292 43.3212 51.511 43.1689 51.5868 42.9373L50.0781 39.9785Z" fill="black"/>
<path d="M56.6315 39.9788V41.7309C56.7708 41.7187 56.8738 41.6669 56.9465 41.5755C57.0192 41.4841 57.1162 41.2739 57.2404 40.9478C57.404 40.5151 57.5706 40.2439 57.7432 40.1251C57.9129 40.0063 58.1946 39.9484 58.5915 39.9484C58.6097 39.9484 58.649 39.9453 58.7096 39.9453V40.5608L58.5915 40.5578C58.4218 40.5578 58.2976 40.5822 58.2219 40.6218C58.1431 40.6675 58.0795 40.7284 58.031 40.8137C57.9795 40.8991 57.9099 41.0758 57.816 41.347C57.7645 41.4872 57.7099 41.606 57.6524 41.7005C57.5887 41.7949 57.4857 41.8894 57.3373 41.9747C57.5221 42.0295 57.6736 42.1362 57.7947 42.2916C57.9129 42.4531 58.0462 42.6786 58.1886 42.9681L58.749 44.0955H57.7796L57.2858 43.0321C57.2798 43.0168 57.2646 42.9863 57.2373 42.9467C57.2222 42.9163 57.1889 42.8523 57.1374 42.7517C57.0344 42.5567 56.9465 42.4318 56.8799 42.3769C56.8132 42.3221 56.7284 42.2946 56.6315 42.2946V44.0985H55.8226V42.2946C55.7257 42.2946 55.6439 42.3221 55.5772 42.3708C55.5076 42.4257 55.4197 42.5537 55.3197 42.7517C55.2592 42.8645 55.2258 42.9315 55.2167 42.9467C55.1986 42.9742 55.1834 43.0016 55.1683 43.0321L54.6745 44.0955H53.7051L54.2625 42.9681C54.4018 42.6877 54.5321 42.4653 54.6533 42.3038C54.7775 42.1362 54.932 42.0295 55.1198 41.9777C54.9683 41.8924 54.8653 41.798 54.8047 41.7096C54.7442 41.6121 54.6896 41.4963 54.6381 41.35C54.5472 41.0849 54.4745 40.9113 54.4261 40.8229C54.3806 40.7345 54.317 40.6675 54.2352 40.6279C54.1595 40.5852 54.0292 40.5639 53.8475 40.5639C53.8263 40.5639 53.7899 40.5639 53.7445 40.5669V39.9484C53.805 39.9484 53.8444 39.9514 53.8626 39.9514C54.2655 39.9514 54.5503 40.0123 54.7199 40.1281C54.8865 40.25 55.0501 40.5212 55.2137 40.9509C55.3379 41.2769 55.4379 41.4933 55.5076 41.5816C55.5772 41.67 55.6833 41.7218 55.8226 41.734V39.9788H56.6315Z" fill="black"/>
<path d="M60.072 43.4065H60.8779C61.1384 43.4065 61.3201 43.3943 61.4231 43.37C61.5261 43.3425 61.617 43.2877 61.6958 43.1963C61.7746 43.1049 61.8109 42.9952 61.8109 42.8641C61.8109 42.6722 61.7473 42.5351 61.611 42.4467C61.4746 42.3583 61.2444 42.3157 60.9172 42.3157H60.0751V43.4065H60.072ZM59.248 39.9785H62.3108V40.6702H60.0751V41.624H61.1838C61.4898 41.624 61.7443 41.6636 61.9442 41.7367C62.1441 41.8098 62.3168 41.95 62.4592 42.1542C62.6016 42.3583 62.6713 42.593 62.6713 42.8641C62.6713 43.1445 62.6016 43.3822 62.4592 43.5802C62.3138 43.7783 62.1502 43.9154 61.9684 43.9885C61.7867 44.0617 61.5231 44.0952 61.1838 44.0952H59.248V39.9785Z" fill="black"/>
<path d="M68.0941 39.9785V44.1013H67.264V39.9785H68.0941ZM64.1983 43.4065H65.0041C65.2647 43.4065 65.4434 43.3943 65.5434 43.37C65.6464 43.3425 65.7342 43.2877 65.816 43.1963C65.8978 43.1049 65.9342 42.9952 65.9342 42.8672C65.9342 42.6844 65.8705 42.5472 65.7433 42.4528C65.613 42.3644 65.3798 42.3157 65.0435 42.3157H64.2044V43.4065H64.1983ZM63.3683 39.9785H64.1953V41.624H65.301C65.5918 41.624 65.8433 41.6666 66.0523 41.7459C66.2583 41.822 66.434 41.9652 66.5764 42.1724C66.7157 42.3766 66.7824 42.6143 66.7824 42.8794C66.7824 43.1567 66.7127 43.4004 66.5673 43.5985C66.4219 43.7996 66.2583 43.9337 66.0826 44.0007C65.9069 44.0678 65.6433 44.0952 65.301 44.0952H63.3652V39.9785H63.3683Z" fill="black"/>
<path d="M110.273 0H57.4922V0.237676H110.273V0Z" fill="#E6E7E8"/>
</g>
<defs>
<clipPath id="clip0_3_3401">
<rect width="110" height="45" fill="white" transform="translate(0.164062)"/>
</clipPath>
</defs>
</svg>
