<svg width="71" height="47" viewBox="0 0 71 47" fill="none" xmlns="http://www.w3.org/2000/svg">
<g clip-path="url(#clip0_3_3349)">
<path d="M11.211 39.2066H7.768V45.1246H6.875V38.4136H11.211V39.2066Z" fill="#58595B"/>
<path d="M21.5209 44.3406H20.8849V38.4136H19.9919V44.3406H16.6879V38.4136H15.7949V45.1246H20.6719V46.6446H21.5209V44.3406Z" fill="#58595B"/>
<path d="M32.4897 45.1241H31.5997V39.3421L29.7327 43.2771H29.1997L27.3497 39.3421V45.1241H26.5137V38.4121H27.7307L29.5207 42.1501L31.2517 38.4121H32.4897V45.1241Z" fill="#58595B"/>
<path d="M43.1685 44.6384C43.0035 44.7094 42.8545 44.7774 42.7195 44.8394C42.5865 44.9024 42.4115 44.9704 42.1965 45.0394C42.0115 45.0964 41.8125 45.1434 41.5985 45.1844C41.3835 45.2254 41.1485 45.2464 40.8875 45.2464C40.4025 45.2464 39.9595 45.1784 39.5615 45.0424C39.1635 44.9044 38.8165 44.6904 38.5215 44.3984C38.2355 44.1144 38.0085 43.7514 37.8455 43.3104C37.6835 42.8704 37.6035 42.3584 37.6035 41.7764C37.6035 41.2234 37.6815 40.7284 37.8375 40.2934C37.9935 39.8564 38.2185 39.4894 38.5135 39.1884C38.8005 38.8994 39.1445 38.6754 39.5485 38.5234C39.9515 38.3684 40.4015 38.2944 40.8945 38.2944C41.2535 38.2944 41.6145 38.3374 41.9725 38.4244C42.3315 38.5114 42.7295 38.6634 43.1685 38.8844V39.9424H43.1015C42.7325 39.6344 42.3665 39.4084 42.0025 39.2674C41.6375 39.1254 41.2495 39.0554 40.8355 39.0554C40.4955 39.0554 40.1895 39.1104 39.9175 39.2194C39.6465 39.3294 39.4015 39.5004 39.1885 39.7314C38.9815 39.9564 38.8205 40.2414 38.7055 40.5864C38.5895 40.9294 38.5315 41.3264 38.5315 41.7774C38.5315 42.2504 38.5945 42.6544 38.7225 42.9934C38.8505 43.3334 39.0135 43.6104 39.2155 43.8234C39.4265 44.0454 39.6715 44.2114 39.9515 44.3164C40.2335 44.4234 40.5295 44.4764 40.8415 44.4764C41.2735 44.4764 41.6745 44.4044 42.0505 44.2554C42.4255 44.1074 42.7785 43.8874 43.1055 43.5934H43.1685V44.6384Z" fill="#58595B"/>
<path d="M53.2481 45.1241H52.3601V39.7471L49.0241 45.1241H48.1221V38.4121H49.0121V43.7081L52.3061 38.4121H53.2481V45.1241Z" fill="#58595B"/>
<path d="M62.2042 40.4626C62.2042 40.2326 62.1632 40.0316 62.0822 39.8606C62.0012 39.6876 61.8782 39.5486 61.7122 39.4406C61.5682 39.3476 61.4032 39.2796 61.2202 39.2396C61.0332 39.2006 60.8022 39.1796 60.5192 39.1796H59.6342V41.8606H60.3882C60.7472 41.8606 61.0412 41.8286 61.2672 41.7636C61.4932 41.6986 61.6752 41.5966 61.8172 41.4546C61.9582 41.3106 62.0582 41.1586 62.1172 40.9986C62.1752 40.8406 62.2042 40.6636 62.2042 40.4626ZM63.1322 40.4416C63.1322 40.7396 63.0802 41.0146 62.9762 41.2686C62.8722 41.5226 62.7282 41.7426 62.5422 41.9286C62.3102 42.1586 62.0372 42.3336 61.7222 42.4496C61.4072 42.5646 61.0072 42.6236 60.5282 42.6236H59.6342V45.1236H58.7422V38.4116H60.5632C60.9652 38.4116 61.3072 38.4476 61.5862 38.5156C61.8642 38.5816 62.1122 38.6896 62.3292 38.8316C62.5842 39.0036 62.7822 39.2186 62.9222 39.4726C63.0622 39.7286 63.1322 40.0506 63.1322 40.4416Z" fill="#58595B"/>
<path d="M20.7695 18.1816H14.1035V24.8566C14.4995 23.2576 15.3165 21.8066 16.4995 20.6166C17.6935 19.4136 19.1545 18.5826 20.7695 18.1816Z" fill="#C2143C"/>
<path d="M53.6482 20.6265C54.8352 21.8205 55.6542 23.2745 56.0502 24.8765V18.1865H49.3672C50.9862 18.5865 52.4512 19.4195 53.6482 20.6265Z" fill="#C2143C"/>
<path d="M35.0897 0.355469L28.3477 3.72747H41.8317L35.0897 0.355469Z" fill="#C2143C"/>
<path d="M56.4121 11.1304V17.8304H63.1111C63.0181 14.2034 60.0381 11.2234 56.4121 11.1304Z" fill="#C2143C"/>
<path d="M7.05273 17.8303H13.7517V11.1313C10.1267 11.2243 7.14573 14.2043 7.05273 17.8303Z" fill="#C2143C"/>
<path d="M6.701 18.1797H0V24.8807H6.701V18.1797Z" fill="#C2143C"/>
<path d="M6.701 25.2324H0V31.9344H6.701V25.2324Z" fill="#C2143C"/>
<path d="M13.7518 18.1816H7.05078V24.8816H13.7518V18.1816Z" fill="#C2143C"/>
<path d="M13.7518 25.2324H7.05078V31.9344H13.7518V25.2324Z" fill="#C2143C"/>
<path d="M20.8035 4.07764H14.1025V10.7786H20.8035V4.07764Z" fill="#C2143C"/>
<path d="M20.8035 11.1304H14.1035V17.8314H20.8035V11.1304Z" fill="#C2143C"/>
<path d="M27.8553 4.07715H21.1543V10.7781H27.8553V4.07715Z" fill="#C2143C"/>
<path d="M27.8533 11.1304H21.1523V17.8314H27.8533V11.1304Z" fill="#C2143C"/>
<path d="M34.9071 4.07764H28.2051V10.7786H34.9071V4.07764Z" fill="#C2143C"/>
<path d="M34.9071 11.1305H28.2051V17.8315H34.9071V11.1305Z" fill="#C2143C"/>
<path d="M41.9588 4.07715H35.2568V10.7781H41.9588V4.07715Z" fill="#C2143C"/>
<path d="M41.9588 11.1304H35.2568V17.8314H41.9588V11.1304Z" fill="#C2143C"/>
<path d="M49.0096 4.07764H42.3086V10.7786H49.0096V4.07764Z" fill="#C2143C"/>
<path d="M49.0106 11.1304H42.3096V17.8314H49.0106V11.1304Z" fill="#C2143C"/>
<path d="M56.0623 4.07812H49.3613V10.7781H56.0623V4.07812Z" fill="#C2143C"/>
<path d="M56.0613 11.1304H49.3613V17.8314H56.0613V11.1304Z" fill="#C2143C"/>
<path d="M63.1121 18.1807H59.7641H56.4121V24.8817H63.1121V18.1807Z" fill="#C2143C"/>
<path d="M63.1121 25.2324H56.4121V31.9334H63.1121V25.2324Z" fill="#C2143C"/>
<path d="M70.1639 18.1797H63.4629V24.8807H70.1639V18.1797Z" fill="#C2143C"/>
<path d="M70.1639 25.2324H63.4629V31.9334H70.1639V25.2324Z" fill="#C2143C"/>
</g>
<defs>
<clipPath id="clip0_3_3349">
<rect width="70.164" height="46.289" fill="white" transform="translate(0 0.355469)"/>
</clipPath>
</defs>
</svg>
