<svg width="87" height="87" viewBox="0 0 87 87" fill="none" xmlns="http://www.w3.org/2000/svg">
<g clip-path="url(#clip0_3_3313)">
<path d="M77.45 82.3031C80.3793 82.3031 82.7571 79.9547 82.7571 77.062V9.94005C82.7571 7.04359 80.3812 4.69708 77.45 4.69522V5.1151V4.69336H9.55022V4.69522C6.62091 4.69522 4.24316 7.04174 4.24316 9.93819V77.0601C4.24316 79.9547 6.61904 82.3013 9.55022 82.3013H77.45V82.3031Z" fill="#BE1E2D"/>
<path d="M87 9.93995C87 4.72671 82.7234 0.501858 77.4499 0.501858H9.5501V0.5C4.27658 0.5 0 4.72485 0 9.93995V77.0619C0 82.2733 4.27658 86.5 9.5501 86.5V84.4006C5.44868 84.4006 2.12245 81.114 2.12245 77.0619V9.93995C2.12245 5.88603 5.44868 2.59942 9.5501 2.59756V2.59942H77.4499C81.5513 2.59942 84.8775 5.88603 84.8775 9.93995V77.0619C84.8775 81.1158 81.5513 84.4006 77.4499 84.4006H9.5501V86.5H77.4499C82.7234 86.5 87 82.2733 87 77.0619V9.93995Z" fill="#BE1E2D"/>
<path d="M17.9061 19.9017V26.1944H13.7935C12.0363 26.1944 10.6089 24.7861 10.6089 23.049V19.9017H17.9061ZM20.0248 19.9017H27.322V23.049C27.322 24.7861 25.8946 26.1944 24.1374 26.1944H20.0248V19.9017ZM9.55044 12.8231C8.96532 12.8231 8.48828 13.2932 8.48828 13.8729V23.049C8.48828 25.9454 10.8642 28.292 13.7953 28.292H17.9079V41.7951C17.9079 42.3748 18.3813 42.8448 18.9664 42.8448C19.5515 42.8448 20.0248 42.3748 20.0248 41.7951V28.292H24.1374H24.1411H24.4039V28.2864C27.2102 28.1489 29.4407 25.8563 29.4407 23.049V13.8729C29.4407 13.2932 28.9674 12.8231 28.3823 12.8231C27.7972 12.8231 27.3239 13.2932 27.3239 13.8729V17.8042H20.0267V10.7256C20.0267 10.1459 19.5534 9.67773 18.9682 9.67773C18.3831 9.67773 17.9061 10.1459 17.9061 10.7256V17.8042H10.6089V13.8729C10.6089 13.2932 10.1356 12.8231 9.55044 12.8231Z" fill="white"/>
<path d="M63.9907 62.0502C64.5404 62.0502 64.9839 62.4905 64.9839 63.033C64.9839 63.5755 64.5404 64.0158 63.9907 64.0158C63.441 64.0158 62.9937 63.5755 62.9937 63.033C62.9937 62.4905 63.441 62.0502 63.9907 62.0502ZM63.9907 66.1134C65.7125 66.1134 67.1063 64.7349 67.1063 63.033C67.1063 61.3312 65.7125 59.9526 63.9907 59.9526C62.2689 59.9526 60.875 61.3312 60.875 63.033C60.875 64.7349 62.2689 66.1134 63.9907 66.1134Z" fill="white"/>
<path d="M43.6323 14.9206C45.5721 14.9206 47.3722 15.5003 48.8723 16.4924V18.001C48.8723 20.8603 46.5281 23.1789 43.6323 23.1789C40.7421 23.1789 38.3942 20.8603 38.3942 18.001V16.4924C39.8924 15.5003 41.6943 14.9206 43.6323 14.9206ZM42.572 12.8714C36.6985 13.4009 32.0977 18.2834 32.0977 24.2268V24.2287C32.0977 24.8083 32.571 25.2765 33.1561 25.2765C33.7412 25.2765 34.2145 24.8083 34.2145 24.2287C34.2145 22.0252 34.9897 20.0038 36.2848 18.4097C36.419 20.8789 37.8016 23.0192 39.8216 24.2287C37.6917 25.5032 36.2699 27.8144 36.2699 30.4545V41.795C36.2699 42.3747 36.7469 42.8447 37.332 42.8447C37.9172 42.8447 38.3905 42.3747 38.3905 41.795V30.4545C38.3905 27.597 40.7347 25.2784 43.6267 25.2765C43.6286 25.2765 43.6286 25.2765 43.6286 25.2765C43.6304 25.2765 43.6304 25.2765 43.6304 25.2765C46.5244 25.2784 48.8686 27.597 48.8686 30.4545V41.795C48.8686 42.3747 49.3419 42.8447 49.927 42.8447C50.5121 42.8447 50.9891 42.3747 50.9891 41.795V30.4545C50.9891 27.8144 49.5655 25.5032 47.4374 24.2287C49.4537 23.0192 50.8401 20.8789 50.978 18.4097C52.2693 20.0038 53.0445 22.0271 53.0445 24.2287C53.0445 24.8083 53.5178 25.2765 54.1029 25.2765C54.6881 25.2765 55.1651 24.8083 55.1651 24.2287C55.1651 24.2268 55.1651 24.2268 55.1651 24.2268C55.1614 18.2815 50.5606 13.4009 44.687 12.8714V10.7905H44.6833C44.6852 10.7701 44.687 10.7478 44.687 10.7255C44.687 10.1458 44.2118 9.67578 43.6249 9.67578C43.0416 9.67578 42.5646 10.1458 42.5646 10.7255C42.5646 10.7478 42.5683 10.7701 42.5683 10.7905H42.5646V12.8714H42.572Z" fill="white"/>
<path d="M73.4057 65.1308C73.3833 65.1308 73.3628 65.129 73.3404 65.129V65.0639C73.3404 63.364 74.7343 61.9854 76.4561 61.9854H76.5213V65.1308H73.4057ZM71.272 64.2966C70.6683 63.7355 70.29 62.9385 70.29 62.0504V56.2166H72.4777C74.1995 56.2166 75.5933 54.8362 75.5933 53.1344C75.5933 52.5566 75.12 52.0865 74.5349 52.0865C73.9498 52.0865 73.4727 52.5584 73.4727 53.1344C73.4727 53.6788 73.0292 54.1172 72.4795 54.1172H70.2919V51.6276V51.6239V48.4804H73.4038H73.4075H73.4112C75.1293 48.4822 76.5232 49.8608 76.5232 51.5626C76.5232 51.5626 76.5232 51.5626 76.5232 51.5645V59.886H76.458C73.8231 59.8878 71.6503 61.8015 71.272 64.2966ZM76.5194 72.4063C76.5194 74.1081 75.1256 75.4867 73.4038 75.4867H62.9276V77.5843H73.4057C76.2996 77.5843 78.6438 75.2675 78.6438 72.41C78.6438 72.4082 78.6438 72.4063 78.6438 72.4063V51.5626C78.6438 51.5608 78.6438 51.5608 78.6438 51.5589C78.6438 48.7015 76.2996 46.3847 73.4057 46.3828H62.9276C60.0374 46.3828 57.6895 48.7015 57.6895 51.5626V72.4063C57.6895 75.2656 60.0374 77.5843 62.9276 77.5843V75.4867C61.2058 75.4867 59.8119 74.1081 59.8119 72.4063V72.4045V51.5645V51.5626C59.8119 49.8608 61.2058 48.4804 62.9276 48.4804H62.9313H68.1657V54.1172H61.9344C61.3492 54.1172 60.8722 54.5873 60.8722 55.1651C60.8722 55.7466 61.3492 56.2148 61.9344 56.2148H68.1657V62.0486C68.1657 64.135 69.4179 65.9353 71.2198 66.7528V69.6511H61.9362C61.3511 69.6511 60.8741 70.123 60.8741 70.7008C60.8741 71.2786 61.3511 71.7468 61.9362 71.7468H61.9399H72.2764H72.2801C72.8653 71.7468 73.3423 71.2786 73.3423 70.7008V67.2247C73.3647 67.2247 73.3852 67.2265 73.4075 67.2265H76.5232V72.4063C76.5195 72.4063 76.5194 72.4063 76.5194 72.4063Z" fill="white"/>
<path d="M52.616 76.5027C52.616 77.0842 53.093 77.5506 53.6782 77.5506C54.2633 77.5506 54.7366 77.0824 54.7366 76.5027V69.2105H54.7552C54.7552 66.3307 52.3924 63.9972 49.4854 63.9972V64.0158C47.7487 64.0047 46.3493 62.615 46.3493 60.902V59.4603H47.84C50.7526 59.4603 53.1135 57.1249 53.1135 54.247V47.3672C53.1135 46.7857 52.6365 46.3175 52.0551 46.3175C51.4663 46.3175 50.993 46.7876 50.993 47.3672V54.247C50.993 55.9674 49.5805 57.3608 47.8419 57.3608H46.3511V46.3844C46.3511 46.3844 46.3511 46.3844 46.3511 46.3825C46.3511 45.8029 45.876 45.3365 45.2927 45.3365C44.7057 45.3365 44.2324 45.8047 44.2324 46.3825V46.3844V60.902C44.2324 63.7799 46.5915 66.1134 49.5041 66.1134V66.0985C51.2296 66.1059 52.6272 67.4882 52.6384 69.1937H52.6197V76.5027H52.616Z" fill="white"/>
<path d="M66.9736 19.9022V26.1949H62.861C61.1038 26.1949 59.6764 24.7866 59.6764 23.0495V19.9022H66.9736ZM69.0961 19.9022H76.3896V23.0495C76.3896 24.7866 74.9622 26.1949 73.2087 26.1949H69.0961V19.9022ZM58.618 12.8236C58.0329 12.8236 57.5596 13.2937 57.5596 13.8733V23.0495C57.5596 25.9459 59.9317 28.2924 62.8629 28.2924H66.9755V41.7956C66.9755 42.3753 67.4488 42.8453 68.0339 42.8453C68.619 42.8453 69.0961 42.3753 69.0961 41.7956V28.2924H73.4714V28.2869C76.2778 28.1494 78.512 25.8568 78.512 23.0495V13.8733C78.512 13.2937 78.035 12.8236 77.4499 12.8236C76.8666 12.8236 76.3914 13.2937 76.3914 13.8733V17.8046H69.0961V10.7261C69.0961 10.1464 68.619 9.67822 68.0339 9.67822C67.4488 9.67822 66.9755 10.1464 66.9755 10.7261V17.8046H59.6783V13.8733C59.6764 13.2937 59.2031 12.8236 58.618 12.8236Z" fill="white"/>
<path d="M13.1632 62.0166C13.3532 62.0166 13.5414 62.0054 13.7241 61.9831V70.3065C13.7241 70.3084 13.7241 70.3084 13.7241 70.3102C13.7278 74.327 17.0223 77.582 21.0865 77.582H28.3762H28.38C28.9651 77.582 29.4421 77.112 29.4421 76.5342C29.4421 75.9564 28.9651 75.4863 28.38 75.4863H21.0865C18.1926 75.4863 15.8484 73.1677 15.8484 70.3084V68.8685H17.9019C17.9131 68.8685 17.9242 68.8648 17.9391 68.8648V68.8685C20.8517 68.8685 23.2089 66.5331 23.2089 63.6552V61.9961C23.3729 62.011 23.5406 62.0184 23.7083 62.0184C26.6172 62.0184 28.9781 59.6849 28.9781 56.8071C28.9781 56.8071 28.9781 56.8071 28.9781 56.8033C28.9781 53.9812 26.7066 51.6867 23.8723 51.5994V51.5938H23.7083H23.2089V48.48H24.3363C24.9196 48.48 25.3947 48.0118 25.3947 47.434C25.3947 46.8525 24.9177 46.3843 24.3363 46.3843H22.1486C21.5598 46.3843 21.0865 46.8543 21.0865 47.434V52.6454C21.0865 53.2269 21.5598 53.6932 22.1486 53.6932H23.7065C25.4432 53.6932 26.8538 55.0866 26.8538 56.8071C26.8538 58.5275 25.4413 59.9209 23.7065 59.9209C23.535 59.9209 23.3673 59.906 23.2071 59.8819V57.8568C23.2071 57.2752 22.73 56.8089 22.1486 56.8089C21.5598 56.8089 21.0865 57.2771 21.0865 57.8568V63.6571C21.0865 65.3794 19.6777 66.7728 17.9391 66.7728C17.9242 66.7728 17.9131 66.7728 17.9019 66.7728H15.8502V57.8568C15.8502 57.2752 15.3732 56.8089 14.7881 56.8089C14.203 56.8089 13.7259 57.2771 13.7259 57.8568V59.8707C13.5433 59.9042 13.3551 59.9209 13.165 59.9209C11.4246 59.9209 10.014 58.5275 10.014 56.8071C10.014 55.0904 11.4227 53.6969 13.1594 53.6932H14.8552C15.4403 53.6932 15.9173 53.225 15.9173 52.6454V47.434C15.9173 46.8525 15.4403 46.3843 14.8552 46.3843H12.6656C12.0805 46.3843 11.6072 46.8543 11.6072 47.434C11.6072 48.0136 12.0805 48.48 12.6656 48.48H13.793V51.5938H13.1632C13.1594 51.5938 13.1594 51.5938 13.1557 51.5938H13.1315V51.5957C10.2338 51.6142 7.88965 53.9403 7.88965 56.8071C7.88965 59.6831 10.2525 62.0166 13.1632 62.0166Z" fill="white"/>
<path d="M34.7144 68.2758C34.6957 69.9795 33.2944 71.3562 31.567 71.3562C30.9819 71.3562 30.5049 71.8263 30.5049 72.4041C30.5049 72.9819 30.9819 73.4519 31.567 73.4519V73.4854C34.4796 73.4854 36.8368 71.1519 36.8368 68.274V50.6091C38.5773 50.6091 39.9842 52.0026 39.9842 53.723C39.9842 53.7341 39.9842 53.7453 39.9842 53.7564H40.0214H39.9842V73.8458H42.1066V53.9794C42.129 53.8995 42.1439 53.8121 42.1439 53.7248C42.1439 53.6189 42.1253 53.5186 42.0973 53.422C41.9221 50.7002 39.6376 48.545 36.8387 48.545H34.7162C34.1311 48.545 33.6578 48.0768 33.6578 47.499C33.6578 46.9175 33.1808 46.4512 32.5957 46.4512C32.0105 46.4512 31.5335 46.9194 31.5335 47.499C31.5335 47.499 31.5335 47.499 31.5335 47.5027C31.5372 49.238 32.9646 50.6444 34.7181 50.6444V68.2758H34.7144Z" fill="white"/>
<path d="M43.5648 76.9952C44.1499 76.9952 44.6251 76.5252 44.6251 75.9492C44.6251 75.3677 44.1499 74.8995 43.5648 74.8995H43.1661C42.5809 74.8995 42.1039 74.4295 42.1039 73.8535H39.9814C39.9814 75.5442 41.3362 76.9246 43.0319 76.9934V76.9971H43.5648V76.9952Z" fill="white"/>
</g>
<defs>
<clipPath id="clip0_3_3313">
<rect width="87" height="86" fill="white" transform="translate(0 0.5)"/>
</clipPath>
</defs>
</svg>
